<svg width="2621" height="2621" viewBox="0 0 2621 2621" fill="none" xmlns="http://www.w3.org/2000/svg">
<mask id="path-1-outside-1_19_3" maskUnits="userSpaceOnUse" x="0" y="0" width="2621" height="2621" fill="black">
<rect fill="white" width="2621" height="2621"/>
<path d="M1310.5 367.797C790.703 367.797 367.797 790.703 367.797 1310.5C367.797 1830.3 790.703 2253.2 1310.5 2253.2C1830.3 2253.2 2253.2 1830.3 2253.2 1310.5C2253.2 790.703 1830.3 367.797 1310.5 367.797ZM1310.5 2201.87C819.008 2201.87 419.132 1801.99 419.132 1310.5C419.132 819.008 819.008 419.132 1310.5 419.132C1801.99 419.132 2201.87 819.008 2201.87 1310.5C2201.87 1801.99 1801.99 2201.87 1310.5 2201.87ZM2341.38 1305.89L2341.13 1293.25C2340.3 1242.67 2335.77 1192.17 2327.73 1142.76L2374.63 1134.05C2378.23 1156.16 2381.25 1178.94 2383.59 1202.05L2385.77 1223.91L2520.85 1210.43L2518.67 1188.49C2515.15 1154.07 2510.38 1120.07 2504.27 1087.57C2498.15 1054.41 2490.45 1021 2481.4 988.087L2475.54 966.9L2298.59 1015.55L2294.82 1003.5C2279.83 955.511 2261.24 908.363 2239.39 863.058L2281.84 841.452C2291.64 861.718 2301.02 882.737 2309.73 904.092L2318.02 924.442L2443.72 873.274L2435.43 852.841C2422.37 820.934 2408.13 789.698 2392.97 760.053C2377.23 729.235 2360.39 699.339 2342.89 671.201L2331.25 652.526L2175.32 749.25L2168.29 738.782C2140.4 696.994 2109.16 656.964 2075.41 619.615L2110.08 586.955C2125.33 603.787 2140.23 621.373 2154.47 639.211L2168.2 656.462L2274.39 571.881L2260.66 554.713C2239.47 528.083 2216.94 502.206 2193.91 477.669C2170.55 452.965 2146.01 429.014 2120.97 406.487L2104.56 391.832L1982.04 528.418L1972.33 520.295C1933.8 487.97 1892.6 458.324 1849.81 431.945L1873.93 390.827C1893.69 402.97 1912.87 415.531 1931.21 428.512L1949.21 441.241L2027.43 330.28L2009.51 317.551C1982.29 298.29 1953.4 279.783 1923.76 262.364C1895.2 245.532 1864.8 229.453 1833.65 214.546L1813.8 205L1734.66 370.561L1723.11 365.536C1676.96 345.354 1629.14 328.605 1580.74 315.458L1592.21 269.231C1613.82 275.009 1635.76 281.709 1657.87 289.246L1678.72 296.28L1722.35 167.817L1701.5 160.783C1668.5 149.645 1635.51 139.931 1603.6 132.059C1570.44 123.852 1536.78 116.985 1503.61 111.709L1481.92 108.276L1452.95 289.413L1440.39 287.822C1390.22 281.541 1339.56 278.945 1289.4 279.95L1287.39 232.384C1310.25 231.881 1333.28 232.133 1355.97 233.054L1378 233.975L1383.61 98.3939L1361.67 97.4727C1327.92 96.0491 1293.58 96.0491 1259.84 97.4727C1226.34 98.8126 1192.17 101.66 1158.25 105.931L1136.4 108.694L1159.26 290.837L1146.78 292.847C1097.37 300.719 1048.05 312.359 999.811 327.6L984.486 282.463C1006.76 275.428 1028.87 269.147 1050.48 263.871L1071.83 258.596L1039.17 126.867L1017.82 132.143C985.826 140.015 952.914 149.645 919.836 160.867C888.013 171.67 856.023 184.064 824.703 197.714L804.521 206.507L878.048 374.664L866.659 380.108C821.353 401.797 777.304 426.92 735.516 455.058L708.048 416.117C726.723 403.472 746.235 391.246 766.082 379.605L785.092 368.467L716.422 251.394L697.413 262.532C667.767 279.95 638.876 298.541 611.659 317.719C583.605 337.482 556.388 358.418 530.846 379.856L514.014 394.009L631.925 534.615L622.546 543.073C585.112 576.654 549.856 613.166 517.699 651.94L480.433 622.211C495.088 604.541 510.329 587.373 525.905 570.876L541.063 554.881L442.329 461.758L427.255 477.753C404.142 502.206 381.699 528.167 360.512 554.713C339.492 581.093 319.31 608.728 300.384 637.033L288.157 655.289L440.738 757.206L434.039 767.925C407.576 810.55 384.044 855.521 364.029 901.747L319.896 883.742C329.108 862.471 338.822 841.619 349.039 821.688L359.088 802.092L238.162 740.457L228.197 760.053C213.039 789.698 198.803 820.934 185.739 852.841C173.01 884.077 161.453 916.319 151.32 948.895L144.704 969.914L319.98 1024.52L316.63 1036.66C303.398 1084.81 293.6 1134.55 287.487 1184.8L240.088 1180.11C242.852 1157 246.369 1134.22 250.472 1112.36L254.492 1090.67L121.005 1065.88L116.985 1087.49C110.872 1119.98 106.098 1153.98 102.581 1188.49C99.2313 1222.65 97.2215 1256.82 96.719 1290.15L96.3841 1312.17L279.866 1315.19L280.034 1327.83C280.871 1378.42 285.394 1428.91 293.433 1478.32L246.62 1487.03C243.019 1464.92 240.004 1442.15 237.66 1419.03L235.482 1397.17L100.404 1410.66L102.665 1432.6C106.182 1467.1 110.955 1501.1 117.069 1533.51C123.182 1566.59 130.886 1600.09 139.931 1633L145.793 1654.18L322.743 1605.53L326.512 1617.59C341.502 1665.57 360.093 1712.72 381.95 1758.03L339.492 1779.63C329.694 1759.37 320.315 1738.35 311.605 1716.99L303.315 1696.64L177.615 1747.81L185.99 1768.24C199.054 1800.15 213.29 1831.39 228.448 1861.03C244.192 1891.85 261.024 1921.75 278.527 1949.88L290.167 1968.56L446.098 1871.83L453.132 1882.3C481.019 1924.09 512.255 1964.12 546.004 2001.47L511.334 2034.13C496.093 2017.3 481.186 1999.71 466.95 1981.87L453.216 1964.62L347.029 2049.2L360.763 2066.45C381.95 2093.08 404.477 2119.05 427.507 2143.41C450.871 2168.2 475.408 2192.07 500.447 2214.6L516.861 2229.25L639.378 2092.67L649.092 2100.79C687.614 2133.11 728.816 2162.76 771.609 2189.14L747.491 2230.26C727.728 2218.11 708.55 2205.47 690.211 2192.57L672.206 2179.84L593.989 2290.8L611.91 2303.45C639.127 2322.71 667.935 2341.22 697.664 2358.64C726.22 2375.47 756.536 2391.55 787.772 2406.45L807.619 2416L886.757 2250.44L898.314 2255.46C944.54 2275.65 992.274 2292.39 1040.68 2305.54L1029.2 2351.77C1007.68 2345.91 985.658 2339.29 963.55 2331.75L942.698 2324.72L899.067 2453.27L919.92 2460.3C952.915 2471.44 985.909 2481.15 1017.82 2489.02C1050.98 2497.23 1084.64 2504.1 1117.81 2509.37L1139.5 2512.81L1168.47 2331.59L1181.03 2333.18C1231.19 2339.46 1281.86 2342.05 1332.02 2341.05L1333.95 2388.7C1311.09 2389.2 1288.06 2388.95 1265.36 2388.03L1243.34 2387.11L1237.73 2522.69L1259.75 2523.61C1276.67 2524.28 1293.67 2524.7 1310.67 2524.7C1327.67 2524.7 1344.67 2524.36 1361.58 2523.61C1395.08 2522.27 1429.25 2519.42 1463.16 2515.15L1485.02 2512.39L1462.16 2330.25L1474.64 2328.24C1524.05 2320.37 1573.37 2308.72 1621.61 2293.48L1636.93 2338.62C1614.66 2345.66 1592.55 2351.94 1570.94 2357.21L1549.5 2362.49L1582.16 2494.22L1603.52 2488.94C1635.51 2481.07 1668.42 2471.44 1701.5 2460.22C1733.32 2449.41 1765.31 2437.02 1796.63 2423.37L1816.81 2414.58L1743.29 2246.42L1754.68 2240.98C1799.98 2219.29 1844.03 2194.16 1885.82 2166.03L1913.29 2204.97C1894.61 2217.61 1875.1 2229.84 1855.25 2241.48L1836.24 2252.62L1904.83 2369.69L1923.84 2358.55C1953.48 2341.13 1982.38 2322.54 2009.59 2303.37C2037.65 2283.6 2064.86 2262.67 2090.4 2241.23L2107.24 2227.07L1989.33 2086.47L1998.71 2078.01C2036.14 2044.43 2071.4 2007.92 2103.55 1969.14L2140.82 1998.79C2126.16 2016.46 2110.92 2033.63 2095.35 2050.12L2080.19 2066.12L2178.92 2159.24L2194 2143.25C2217.11 2118.79 2239.55 2092.83 2260.74 2066.29C2281.76 2039.91 2302.03 2012.27 2320.87 1983.97L2333.09 1965.63L2180.51 1863.71L2187.13 1852.99C2213.59 1810.37 2237.12 1765.4 2257.14 1719.17L2301.27 1737.17C2292.06 1758.45 2282.35 1779.3 2272.13 1799.23L2262.16 1818.82L2383.09 1880.46L2393.05 1860.86C2408.21 1831.22 2422.45 1799.98 2435.51 1768.08C2448.24 1736.84 2459.8 1704.51 2469.93 1672.02L2476.46 1651L2301.19 1596.4L2304.54 1584.26C2317.77 1536.11 2327.57 1486.36 2333.68 1436.12L2381.08 1440.89C2378.32 1464.09 2374.8 1486.78 2370.7 1508.64L2366.68 1530.33L2500.16 1555.12L2504.18 1533.51C2510.3 1501.02 2515.07 1467.02 2518.59 1432.51C2521.94 1398.35 2523.95 1364.18 2524.45 1330.85L2524.78 1308.83L2341.3 1305.81L2341.38 1305.89ZM2474.79 1428.16C2472.19 1453.79 2468.84 1479.16 2464.74 1503.78L2417.84 1495.07C2421.7 1471.79 2424.88 1447.76 2427.31 1423.47L2429.48 1401.53L2294.49 1388.05L2292.31 1409.9C2286.78 1465.09 2276.57 1519.86 2262.08 1572.62L2257.47 1589.28L2246.25 1625.38L2421.11 1679.89C2413.07 1704.1 2404.19 1728.13 2394.65 1751.49C2384.93 1775.28 2374.55 1798.64 2363.58 1821.17L2321.04 1799.48C2331.42 1778.12 2341.22 1756.02 2350.43 1733.49L2358.8 1713.06L2233.1 1661.89L2224.81 1682.24C2203.96 1733.32 2178.67 1782.98 2149.7 1829.71L2140.99 1843.7L2119.55 1875.85L2271.88 1977.6C2257.31 1998.54 2242.06 2019.06 2226.32 2038.74C2210.49 2058.58 2193.91 2078.09 2176.91 2096.77L2142.24 2064.03C2158.32 2046.27 2174.06 2027.85 2189.06 2008.92L2202.79 1991.67L2096.69 1907.17L2082.95 1924.42C2048.62 1967.55 2010.35 2008.08 1969.23 2045.02L1956.83 2056.15L1927.27 2080.94L2044.93 2221.3C2025.42 2237.04 2004.99 2252.45 1984.05 2267.27C1963.62 2281.68 1942.26 2295.74 1920.32 2309.14L1896.2 2268.03C1917.06 2255.3 1937.24 2241.98 1956.58 2228.33L1974.5 2215.6L1896.37 2104.73L1878.37 2117.45C1833.31 2149.19 1785.24 2177.41 1735.5 2201.2L1720.17 2208.57L1685.25 2223.81L1758.61 2391.63C1735 2401.43 1711.05 2410.47 1687.26 2418.51C1662.73 2426.8 1638.19 2434.26 1614.15 2440.7L1602.68 2394.39C1625.38 2388.28 1648.57 2381.25 1671.77 2373.37L1692.62 2366.34L1648.99 2237.88L1628.14 2244.91C1575.63 2262.67 1521.62 2276.06 1467.52 2284.69L1450.44 2287.37L1412.83 2292.06L1435.61 2473.78C1410.15 2476.46 1384.7 2478.39 1359.57 2479.39C1334.28 2480.4 1308.74 2480.65 1283.37 2480.06L1285.38 2432.41C1309.41 2432.92 1333.61 2432.67 1357.65 2431.74L1379.67 2430.82L1374.06 2295.24L1352.04 2296.16C1297.18 2298.51 1241.41 2296.16 1186.39 2289.3L1170.56 2287.29L1131.79 2281.09L1102.9 2461.98C1078.03 2457.54 1053.07 2452.18 1028.2 2446.06C1004.17 2440.12 979.545 2433.17 954.757 2425.3L970.082 2380.16C993.614 2387.61 1016.89 2394.23 1039.67 2399.84L1061.03 2405.11L1093.69 2273.47L1072.33 2268.19C1019.07 2255.05 966.313 2237.12 915.649 2215.02L901.161 2208.65L865.737 2191.73L786.767 2356.96C763.654 2345.4 741.21 2333.18 719.772 2320.53C697.664 2307.55 676.058 2293.9 655.206 2279.83L682.674 2240.89C702.353 2254.21 722.871 2267.1 743.806 2279.41L762.816 2290.55L831.402 2173.48L812.393 2162.34C764.826 2134.45 719.27 2102.38 676.979 2066.87L664.083 2056.07L635.442 2030.44L513.176 2166.78C494.669 2149.53 476.497 2131.52 459.078 2113.02C441.743 2094.68 424.827 2075.58 408.581 2055.9L445.846 2026.17C461.255 2044.85 477.334 2062.94 493.748 2080.36L508.822 2096.35L607.556 2003.23L592.398 1987.23C554.546 1947.12 519.792 1903.49 489.226 1857.68L479.846 1843.61L459.664 1811.04L304.068 1907.59C291.256 1886.07 278.945 1863.71 267.221 1840.77C255.832 1818.49 245.029 1795.38 234.812 1771.68L279.029 1753.67C288.66 1776.11 298.96 1798.06 309.763 1819.08L319.728 1838.67L440.571 1777.12L430.605 1757.52C405.649 1708.53 384.63 1656.95 368.216 1604.27L363.526 1589.12L353.142 1551.26L176.527 1599.83C170.246 1575.05 164.719 1550.09 160.113 1525.3C155.591 1500.93 151.739 1475.64 148.64 1449.93L196.123 1445.16C199.054 1469.61 202.739 1493.56 207.009 1516.68L211.029 1538.28L344.433 1513.49L340.413 1491.89C330.364 1438.04 324.837 1382.6 323.916 1327L323.664 1310.42L324.334 1271.81L141.187 1268.8C142.108 1243.67 143.783 1218.21 146.295 1192.76C148.891 1167.05 152.241 1141.76 156.345 1117.14L203.241 1125.85C199.389 1149.13 196.207 1173.16 193.778 1197.45L191.601 1219.39L326.595 1232.87L328.773 1211.01C334.3 1155.83 344.517 1101.06 359.004 1048.3L363.61 1031.63L374.832 995.54L199.975 941.023C208.014 916.821 216.891 892.786 226.438 869.422C236.152 845.639 246.536 822.274 257.507 799.747L299.965 821.437C289.581 842.792 279.783 864.9 270.571 887.427L262.197 907.86L387.896 959.028L396.186 938.678C417.039 887.594 442.329 837.934 471.305 791.205L480.014 777.22L501.536 745.063L349.206 643.314C363.778 622.378 379.019 601.861 394.763 582.181C410.59 562.334 427.172 542.822 444.172 524.147L478.841 556.891C462.763 574.644 447.019 593.068 432.029 611.91L418.295 629.161L524.398 713.659L538.132 696.408C572.467 653.28 610.738 612.748 651.856 575.9L664.25 564.762L693.812 539.974L576.152 399.62C595.748 383.876 616.097 368.467 637.033 353.645C657.467 339.241 678.821 325.172 700.762 311.773L724.88 352.891C704.112 365.62 683.846 378.935 664.501 392.585L646.58 405.315L724.713 516.191L742.718 503.462C787.772 471.723 835.841 443.502 885.585 419.718L900.91 412.349L935.831 397.108L862.471 229.285C886.087 219.487 910.038 210.443 933.821 202.404C958.358 194.113 982.895 186.66 1006.85 180.211L1018.32 226.522C995.624 232.635 972.427 239.67 949.146 247.541L928.294 254.576L971.924 383.039L992.776 376.004C1045.28 358.251 1099.3 344.852 1153.4 336.226L1170.48 333.546L1208.08 328.857L1185.3 147.133C1210.76 144.453 1236.22 142.527 1261.34 141.522C1286.63 140.517 1312.17 140.266 1337.55 140.852L1335.62 188.502C1311.59 188 1287.3 188.167 1263.35 189.172L1241.41 190.093L1247.02 325.674L1269.05 324.753C1323.98 322.408 1379.67 324.753 1434.78 331.62L1450.52 333.546L1489.29 339.743L1518.18 158.857C1543.06 163.295 1568.1 168.655 1592.88 174.768C1616.92 180.714 1641.54 187.665 1666.33 195.537L1651 240.674C1627.47 233.221 1604.19 226.605 1581.41 220.995L1560.06 215.719L1527.4 347.364L1548.75 352.64C1602.01 365.788 1654.77 383.709 1705.44 405.817L1719.92 412.181L1755.35 429.098L1834.32 263.871C1857.43 275.428 1879.87 287.655 1901.4 300.3C1923.5 313.28 1945.11 326.93 1965.88 340.999L1938.41 380.024C1918.73 366.709 1898.21 353.812 1877.28 341.502L1858.27 330.364L1789.68 447.438L1808.69 458.575C1856.26 486.462 1901.81 518.536 1944.1 554.043L1956.92 564.846L1985.56 590.472L2107.82 454.137C2126.33 471.388 2144.5 489.393 2161.92 507.901C2179.17 526.157 2196.09 545.334 2212.42 565.014L2175.15 594.743C2159.74 576.068 2143.67 557.979 2127.25 540.644L2112.18 524.649L2013.53 617.689L2028.6 633.684C2066.45 673.797 2101.21 717.427 2131.86 763.235L2141.24 777.22L2161.42 809.797L2317.1 713.24C2329.83 734.762 2342.22 757.122 2353.95 780.068C2365.25 802.343 2376.14 825.457 2386.36 849.156L2342.22 867.161C2332.51 844.718 2322.21 822.777 2311.49 801.673L2301.52 782.077L2180.68 843.629L2190.65 863.225C2215.6 912.215 2236.62 963.801 2253.04 1016.48L2257.72 1031.63L2268.11 1069.49L2444.72 1020.91C2451.01 1045.7 2456.53 1070.66 2461.14 1095.45C2465.66 1119.9 2469.51 1145.11 2472.61 1170.82L2425.13 1175.59C2422.2 1151.22 2418.51 1127.27 2414.24 1104.16L2410.22 1082.55L2276.82 1107.34L2280.84 1128.94C2290.89 1182.79 2296.41 1238.23 2297.34 1293.84L2297.59 1310.42L2296.92 1349.02L2480.06 1352.04C2479.23 1377.16 2477.47 1402.62 2474.96 1428.08L2474.79 1428.16ZM1310.5 1C588.462 1 1 588.462 1 1310.5C1 2032.54 588.462 2620 1310.5 2620C2032.54 2620 2620 2032.54 2620 1310.5C2620 588.462 2032.62 1 1310.5 1ZM1310.5 2568.75C616.767 2568.75 52.3349 2004.32 52.3349 1310.58C52.3349 616.851 616.767 52.3349 1310.5 52.3349C2004.23 52.3349 2568.67 616.767 2568.67 1310.5C2568.67 2004.23 2004.23 2568.67 1310.5 2568.67V2568.75Z"/>
</mask>
<path d="M1310.5 367.797C790.703 367.797 367.797 790.703 367.797 1310.5C367.797 1830.3 790.703 2253.2 1310.5 2253.2C1830.3 2253.2 2253.2 1830.3 2253.2 1310.5C2253.2 790.703 1830.3 367.797 1310.5 367.797ZM1310.5 2201.87C819.008 2201.87 419.132 1801.99 419.132 1310.5C419.132 819.008 819.008 419.132 1310.5 419.132C1801.99 419.132 2201.87 819.008 2201.87 1310.5C2201.87 1801.99 1801.99 2201.87 1310.5 2201.87ZM2341.38 1305.89L2341.13 1293.25C2340.3 1242.67 2335.77 1192.17 2327.73 1142.76L2374.63 1134.05C2378.23 1156.16 2381.25 1178.94 2383.59 1202.05L2385.77 1223.91L2520.85 1210.43L2518.67 1188.49C2515.15 1154.07 2510.38 1120.07 2504.27 1087.57C2498.15 1054.41 2490.45 1021 2481.4 988.087L2475.54 966.9L2298.59 1015.55L2294.82 1003.5C2279.83 955.511 2261.24 908.363 2239.39 863.058L2281.84 841.452C2291.64 861.718 2301.02 882.737 2309.73 904.092L2318.02 924.442L2443.72 873.274L2435.43 852.841C2422.37 820.934 2408.13 789.698 2392.97 760.053C2377.23 729.235 2360.39 699.339 2342.89 671.201L2331.25 652.526L2175.32 749.25L2168.29 738.782C2140.4 696.994 2109.16 656.964 2075.41 619.615L2110.08 586.955C2125.33 603.787 2140.23 621.373 2154.47 639.211L2168.2 656.462L2274.39 571.881L2260.66 554.713C2239.47 528.083 2216.94 502.206 2193.91 477.669C2170.55 452.965 2146.01 429.014 2120.97 406.487L2104.56 391.832L1982.04 528.418L1972.33 520.295C1933.8 487.97 1892.6 458.324 1849.81 431.945L1873.93 390.827C1893.69 402.97 1912.87 415.531 1931.21 428.512L1949.21 441.241L2027.43 330.28L2009.51 317.551C1982.29 298.29 1953.4 279.783 1923.76 262.364C1895.2 245.532 1864.8 229.453 1833.65 214.546L1813.8 205L1734.66 370.561L1723.11 365.536C1676.96 345.354 1629.14 328.605 1580.74 315.458L1592.21 269.231C1613.82 275.009 1635.76 281.709 1657.87 289.246L1678.72 296.28L1722.35 167.817L1701.5 160.783C1668.5 149.645 1635.51 139.931 1603.6 132.059C1570.44 123.852 1536.78 116.985 1503.61 111.709L1481.92 108.276L1452.95 289.413L1440.39 287.822C1390.22 281.541 1339.56 278.945 1289.4 279.95L1287.39 232.384C1310.25 231.881 1333.28 232.133 1355.97 233.054L1378 233.975L1383.61 98.3939L1361.67 97.4727C1327.92 96.0491 1293.58 96.0491 1259.84 97.4727C1226.34 98.8126 1192.17 101.66 1158.25 105.931L1136.4 108.694L1159.26 290.837L1146.78 292.847C1097.37 300.719 1048.05 312.359 999.811 327.6L984.486 282.463C1006.76 275.428 1028.87 269.147 1050.48 263.871L1071.83 258.596L1039.17 126.867L1017.82 132.143C985.826 140.015 952.914 149.645 919.836 160.867C888.013 171.67 856.023 184.064 824.703 197.714L804.521 206.507L878.048 374.664L866.659 380.108C821.353 401.797 777.304 426.92 735.516 455.058L708.048 416.117C726.723 403.472 746.235 391.246 766.082 379.605L785.092 368.467L716.422 251.394L697.413 262.532C667.767 279.95 638.876 298.541 611.659 317.719C583.605 337.482 556.388 358.418 530.846 379.856L514.014 394.009L631.925 534.615L622.546 543.073C585.112 576.654 549.856 613.166 517.699 651.94L480.433 622.211C495.088 604.541 510.329 587.373 525.905 570.876L541.063 554.881L442.329 461.758L427.255 477.753C404.142 502.206 381.699 528.167 360.512 554.713C339.492 581.093 319.31 608.728 300.384 637.033L288.157 655.289L440.738 757.206L434.039 767.925C407.576 810.55 384.044 855.521 364.029 901.747L319.896 883.742C329.108 862.471 338.822 841.619 349.039 821.688L359.088 802.092L238.162 740.457L228.197 760.053C213.039 789.698 198.803 820.934 185.739 852.841C173.01 884.077 161.453 916.319 151.32 948.895L144.704 969.914L319.98 1024.52L316.63 1036.66C303.398 1084.81 293.6 1134.55 287.487 1184.8L240.088 1180.11C242.852 1157 246.369 1134.22 250.472 1112.36L254.492 1090.67L121.005 1065.88L116.985 1087.49C110.872 1119.98 106.098 1153.98 102.581 1188.49C99.2313 1222.65 97.2215 1256.82 96.719 1290.15L96.3841 1312.17L279.866 1315.19L280.034 1327.83C280.871 1378.42 285.394 1428.91 293.433 1478.32L246.62 1487.03C243.019 1464.92 240.004 1442.15 237.66 1419.03L235.482 1397.17L100.404 1410.66L102.665 1432.6C106.182 1467.1 110.955 1501.1 117.069 1533.51C123.182 1566.59 130.886 1600.09 139.931 1633L145.793 1654.18L322.743 1605.53L326.512 1617.59C341.502 1665.57 360.093 1712.72 381.95 1758.03L339.492 1779.63C329.694 1759.37 320.315 1738.35 311.605 1716.99L303.315 1696.64L177.615 1747.81L185.99 1768.24C199.054 1800.15 213.29 1831.39 228.448 1861.03C244.192 1891.85 261.024 1921.75 278.527 1949.88L290.167 1968.56L446.098 1871.83L453.132 1882.3C481.019 1924.09 512.255 1964.12 546.004 2001.47L511.334 2034.13C496.093 2017.3 481.186 1999.71 466.95 1981.87L453.216 1964.62L347.029 2049.2L360.763 2066.45C381.95 2093.08 404.477 2119.05 427.507 2143.41C450.871 2168.2 475.408 2192.07 500.447 2214.6L516.861 2229.25L639.378 2092.67L649.092 2100.79C687.614 2133.11 728.816 2162.76 771.609 2189.14L747.491 2230.26C727.728 2218.11 708.55 2205.47 690.211 2192.57L672.206 2179.84L593.989 2290.8L611.91 2303.45C639.127 2322.71 667.935 2341.22 697.664 2358.64C726.22 2375.47 756.536 2391.55 787.772 2406.45L807.619 2416L886.757 2250.44L898.314 2255.46C944.54 2275.65 992.274 2292.39 1040.68 2305.54L1029.2 2351.77C1007.68 2345.91 985.658 2339.29 963.55 2331.75L942.698 2324.72L899.067 2453.27L919.92 2460.3C952.915 2471.44 985.909 2481.15 1017.82 2489.02C1050.98 2497.23 1084.64 2504.1 1117.81 2509.37L1139.5 2512.81L1168.47 2331.59L1181.03 2333.18C1231.19 2339.46 1281.86 2342.05 1332.02 2341.05L1333.95 2388.7C1311.09 2389.2 1288.06 2388.95 1265.36 2388.03L1243.34 2387.11L1237.73 2522.69L1259.75 2523.61C1276.67 2524.28 1293.67 2524.7 1310.67 2524.7C1327.67 2524.7 1344.67 2524.36 1361.58 2523.61C1395.08 2522.27 1429.25 2519.42 1463.16 2515.15L1485.02 2512.39L1462.16 2330.25L1474.64 2328.24C1524.05 2320.37 1573.37 2308.72 1621.61 2293.48L1636.93 2338.62C1614.66 2345.66 1592.55 2351.94 1570.94 2357.21L1549.5 2362.49L1582.16 2494.22L1603.52 2488.94C1635.51 2481.07 1668.42 2471.44 1701.5 2460.22C1733.32 2449.41 1765.31 2437.02 1796.63 2423.37L1816.81 2414.58L1743.29 2246.42L1754.68 2240.98C1799.98 2219.29 1844.03 2194.16 1885.82 2166.03L1913.29 2204.97C1894.61 2217.61 1875.1 2229.84 1855.25 2241.48L1836.24 2252.62L1904.83 2369.69L1923.84 2358.55C1953.48 2341.13 1982.38 2322.54 2009.59 2303.37C2037.65 2283.6 2064.86 2262.67 2090.4 2241.23L2107.24 2227.07L1989.33 2086.47L1998.71 2078.01C2036.14 2044.43 2071.4 2007.92 2103.55 1969.14L2140.82 1998.79C2126.16 2016.46 2110.92 2033.63 2095.35 2050.12L2080.19 2066.12L2178.92 2159.24L2194 2143.25C2217.11 2118.79 2239.55 2092.83 2260.74 2066.29C2281.76 2039.91 2302.03 2012.27 2320.87 1983.97L2333.09 1965.63L2180.51 1863.71L2187.13 1852.99C2213.59 1810.37 2237.12 1765.4 2257.14 1719.17L2301.27 1737.17C2292.06 1758.45 2282.35 1779.3 2272.13 1799.23L2262.16 1818.82L2383.09 1880.46L2393.05 1860.86C2408.21 1831.22 2422.45 1799.98 2435.51 1768.08C2448.24 1736.84 2459.8 1704.51 2469.93 1672.02L2476.46 1651L2301.19 1596.4L2304.54 1584.26C2317.77 1536.11 2327.57 1486.36 2333.68 1436.12L2381.08 1440.89C2378.32 1464.09 2374.8 1486.78 2370.7 1508.64L2366.68 1530.33L2500.16 1555.12L2504.18 1533.51C2510.3 1501.02 2515.07 1467.02 2518.59 1432.51C2521.94 1398.35 2523.95 1364.18 2524.45 1330.85L2524.78 1308.83L2341.3 1305.81L2341.38 1305.89ZM2474.79 1428.16C2472.19 1453.79 2468.84 1479.16 2464.74 1503.78L2417.84 1495.07C2421.7 1471.79 2424.88 1447.76 2427.31 1423.47L2429.48 1401.53L2294.49 1388.05L2292.31 1409.9C2286.78 1465.09 2276.57 1519.86 2262.08 1572.62L2257.47 1589.28L2246.25 1625.38L2421.11 1679.89C2413.07 1704.1 2404.19 1728.13 2394.65 1751.49C2384.93 1775.28 2374.55 1798.64 2363.58 1821.17L2321.04 1799.48C2331.42 1778.12 2341.22 1756.02 2350.43 1733.49L2358.8 1713.06L2233.1 1661.89L2224.81 1682.24C2203.96 1733.32 2178.67 1782.98 2149.7 1829.71L2140.99 1843.7L2119.55 1875.85L2271.88 1977.6C2257.31 1998.54 2242.06 2019.06 2226.32 2038.74C2210.49 2058.58 2193.91 2078.09 2176.91 2096.77L2142.24 2064.03C2158.32 2046.27 2174.06 2027.85 2189.06 2008.92L2202.79 1991.67L2096.69 1907.17L2082.95 1924.42C2048.62 1967.55 2010.35 2008.08 1969.23 2045.02L1956.83 2056.15L1927.27 2080.94L2044.93 2221.3C2025.42 2237.04 2004.99 2252.45 1984.05 2267.27C1963.62 2281.68 1942.26 2295.74 1920.32 2309.14L1896.2 2268.03C1917.06 2255.3 1937.24 2241.98 1956.58 2228.33L1974.5 2215.6L1896.37 2104.73L1878.37 2117.45C1833.31 2149.19 1785.24 2177.41 1735.5 2201.2L1720.17 2208.57L1685.25 2223.81L1758.61 2391.63C1735 2401.43 1711.05 2410.47 1687.26 2418.51C1662.73 2426.8 1638.19 2434.26 1614.15 2440.7L1602.68 2394.39C1625.38 2388.28 1648.57 2381.25 1671.77 2373.37L1692.62 2366.34L1648.99 2237.88L1628.14 2244.91C1575.63 2262.67 1521.62 2276.06 1467.52 2284.69L1450.44 2287.37L1412.83 2292.06L1435.61 2473.78C1410.15 2476.46 1384.7 2478.39 1359.57 2479.39C1334.28 2480.4 1308.74 2480.65 1283.37 2480.06L1285.38 2432.41C1309.41 2432.92 1333.61 2432.67 1357.65 2431.74L1379.67 2430.82L1374.06 2295.24L1352.04 2296.16C1297.18 2298.51 1241.41 2296.16 1186.39 2289.3L1170.56 2287.29L1131.79 2281.09L1102.9 2461.98C1078.03 2457.54 1053.07 2452.18 1028.2 2446.06C1004.17 2440.12 979.545 2433.17 954.757 2425.3L970.082 2380.16C993.614 2387.61 1016.89 2394.23 1039.67 2399.84L1061.03 2405.11L1093.69 2273.47L1072.33 2268.19C1019.07 2255.05 966.313 2237.12 915.649 2215.02L901.161 2208.65L865.737 2191.73L786.767 2356.96C763.654 2345.4 741.21 2333.18 719.772 2320.53C697.664 2307.55 676.058 2293.9 655.206 2279.83L682.674 2240.89C702.353 2254.21 722.871 2267.1 743.806 2279.41L762.816 2290.55L831.402 2173.48L812.393 2162.34C764.826 2134.45 719.27 2102.38 676.979 2066.87L664.083 2056.07L635.442 2030.44L513.176 2166.78C494.669 2149.53 476.497 2131.52 459.078 2113.02C441.743 2094.68 424.827 2075.58 408.581 2055.9L445.846 2026.17C461.255 2044.85 477.334 2062.94 493.748 2080.36L508.822 2096.35L607.556 2003.23L592.398 1987.23C554.546 1947.12 519.792 1903.49 489.226 1857.68L479.846 1843.61L459.664 1811.04L304.068 1907.59C291.256 1886.07 278.945 1863.71 267.221 1840.77C255.832 1818.49 245.029 1795.38 234.812 1771.68L279.029 1753.67C288.66 1776.11 298.96 1798.06 309.763 1819.08L319.728 1838.67L440.571 1777.12L430.605 1757.52C405.649 1708.53 384.63 1656.95 368.216 1604.27L363.526 1589.12L353.142 1551.26L176.527 1599.83C170.246 1575.05 164.719 1550.09 160.113 1525.3C155.591 1500.93 151.739 1475.64 148.64 1449.93L196.123 1445.16C199.054 1469.61 202.739 1493.56 207.009 1516.68L211.029 1538.28L344.433 1513.49L340.413 1491.89C330.364 1438.04 324.837 1382.6 323.916 1327L323.664 1310.42L324.334 1271.81L141.187 1268.8C142.108 1243.67 143.783 1218.21 146.295 1192.76C148.891 1167.05 152.241 1141.76 156.345 1117.14L203.241 1125.85C199.389 1149.13 196.207 1173.16 193.778 1197.45L191.601 1219.39L326.595 1232.87L328.773 1211.01C334.3 1155.83 344.517 1101.06 359.004 1048.3L363.61 1031.63L374.832 995.54L199.975 941.023C208.014 916.821 216.891 892.786 226.438 869.422C236.152 845.639 246.536 822.274 257.507 799.747L299.965 821.437C289.581 842.792 279.783 864.9 270.571 887.427L262.197 907.86L387.896 959.028L396.186 938.678C417.039 887.594 442.329 837.934 471.305 791.205L480.014 777.22L501.536 745.063L349.206 643.314C363.778 622.378 379.019 601.861 394.763 582.181C410.59 562.334 427.172 542.822 444.172 524.147L478.841 556.891C462.763 574.644 447.019 593.068 432.029 611.91L418.295 629.161L524.398 713.659L538.132 696.408C572.467 653.28 610.738 612.748 651.856 575.9L664.25 564.762L693.812 539.974L576.152 399.62C595.748 383.876 616.097 368.467 637.033 353.645C657.467 339.241 678.821 325.172 700.762 311.773L724.88 352.891C704.112 365.62 683.846 378.935 664.501 392.585L646.58 405.315L724.713 516.191L742.718 503.462C787.772 471.723 835.841 443.502 885.585 419.718L900.91 412.349L935.831 397.108L862.471 229.285C886.087 219.487 910.038 210.443 933.821 202.404C958.358 194.113 982.895 186.66 1006.85 180.211L1018.32 226.522C995.624 232.635 972.427 239.67 949.146 247.541L928.294 254.576L971.924 383.039L992.776 376.004C1045.28 358.251 1099.3 344.852 1153.4 336.226L1170.48 333.546L1208.08 328.857L1185.3 147.133C1210.76 144.453 1236.22 142.527 1261.34 141.522C1286.63 140.517 1312.17 140.266 1337.55 140.852L1335.62 188.502C1311.59 188 1287.3 188.167 1263.35 189.172L1241.41 190.093L1247.02 325.674L1269.05 324.753C1323.98 322.408 1379.67 324.753 1434.78 331.62L1450.52 333.546L1489.29 339.743L1518.18 158.857C1543.06 163.295 1568.1 168.655 1592.88 174.768C1616.92 180.714 1641.54 187.665 1666.33 195.537L1651 240.674C1627.47 233.221 1604.19 226.605 1581.41 220.995L1560.06 215.719L1527.4 347.364L1548.75 352.64C1602.01 365.788 1654.77 383.709 1705.44 405.817L1719.92 412.181L1755.35 429.098L1834.32 263.871C1857.43 275.428 1879.87 287.655 1901.4 300.3C1923.5 313.28 1945.11 326.93 1965.88 340.999L1938.41 380.024C1918.73 366.709 1898.21 353.812 1877.28 341.502L1858.27 330.364L1789.68 447.438L1808.69 458.575C1856.26 486.462 1901.81 518.536 1944.1 554.043L1956.92 564.846L1985.56 590.472L2107.82 454.137C2126.33 471.388 2144.5 489.393 2161.92 507.901C2179.17 526.157 2196.09 545.334 2212.42 565.014L2175.15 594.743C2159.74 576.068 2143.67 557.979 2127.25 540.644L2112.18 524.649L2013.53 617.689L2028.6 633.684C2066.45 673.797 2101.21 717.427 2131.86 763.235L2141.24 777.22L2161.42 809.797L2317.1 713.24C2329.83 734.762 2342.22 757.122 2353.95 780.068C2365.25 802.343 2376.14 825.457 2386.36 849.156L2342.22 867.161C2332.51 844.718 2322.21 822.777 2311.49 801.673L2301.52 782.077L2180.68 843.629L2190.65 863.225C2215.6 912.215 2236.62 963.801 2253.04 1016.48L2257.72 1031.63L2268.11 1069.49L2444.72 1020.91C2451.01 1045.7 2456.53 1070.66 2461.14 1095.45C2465.66 1119.9 2469.51 1145.11 2472.61 1170.82L2425.13 1175.59C2422.2 1151.22 2418.51 1127.27 2414.24 1104.16L2410.22 1082.55L2276.82 1107.34L2280.84 1128.94C2290.89 1182.79 2296.41 1238.23 2297.34 1293.84L2297.59 1310.42L2296.92 1349.02L2480.06 1352.04C2479.23 1377.16 2477.47 1402.62 2474.96 1428.08L2474.79 1428.16ZM1310.5 1C588.462 1 1 588.462 1 1310.5C1 2032.54 588.462 2620 1310.5 2620C2032.54 2620 2620 2032.54 2620 1310.5C2620 588.462 2032.62 1 1310.5 1ZM1310.5 2568.75C616.767 2568.75 52.3349 2004.32 52.3349 1310.58C52.3349 616.851 616.767 52.3349 1310.5 52.3349C2004.23 52.3349 2568.67 616.767 2568.67 1310.5C2568.67 2004.23 2004.23 2568.67 1310.5 2568.67V2568.75Z" stroke="#1C558F" stroke-width="2" mask="url(#path-1-outside-1_19_3)"/>
</svg>
