<svg width="1687" height="1687" viewBox="0 0 1687 1687" fill="none" xmlns="http://www.w3.org/2000/svg">
<mask id="path-1-outside-1_19_2" maskUnits="userSpaceOnUse" x="0" y="0" width="1687" height="1687" fill="black">
<rect fill="white" width="1687" height="1687"/>
<path d="M843.5 236.988C509.075 236.988 236.988 509.075 236.988 843.5C236.988 1177.92 509.075 1450.01 843.5 1450.01C1177.92 1450.01 1450.01 1177.92 1450.01 843.5C1450.01 509.075 1177.92 236.988 843.5 236.988ZM843.5 1416.98C527.286 1416.98 270.016 1159.71 270.016 843.5C270.016 527.286 527.286 270.016 843.5 270.016C1159.71 270.016 1416.98 527.286 1416.98 843.5C1416.98 1159.71 1159.71 1416.98 843.5 1416.98ZM1506.75 840.537L1506.58 832.401C1506.05 799.858 1503.14 767.37 1497.96 735.581L1528.14 729.978C1530.45 744.202 1532.39 758.857 1533.9 773.727L1535.3 787.79L1622.21 779.115L1620.81 764.999C1618.54 742.855 1615.47 720.98 1611.54 700.075C1607.61 678.739 1602.65 657.242 1596.83 636.067L1593.06 622.436L1479.21 653.74L1476.79 645.981C1467.15 615.109 1455.18 584.775 1441.12 555.627L1468.44 541.726C1474.74 554.764 1480.78 568.288 1486.38 582.027L1491.71 595.12L1572.59 562.2L1567.25 549.053C1558.85 528.526 1549.69 508.429 1539.94 489.356C1529.81 469.528 1518.98 450.294 1507.72 432.191L1500.23 420.176L1399.9 482.405L1395.38 475.671C1377.44 448.785 1357.34 423.031 1335.63 399.001L1357.93 377.989C1367.74 388.818 1377.33 400.133 1386.49 411.609L1395.32 422.708L1463.64 368.291L1454.81 357.245C1441.18 340.112 1426.68 323.464 1411.87 307.677C1396.83 291.783 1381.05 276.374 1364.94 261.88L1354.38 252.452L1275.55 340.328L1269.3 335.101C1244.52 314.304 1218.01 295.231 1190.48 278.259L1206 251.805C1218.71 259.617 1231.05 267.699 1242.85 276.05L1254.43 284.24L1304.75 212.851L1293.22 204.661C1275.71 192.269 1257.13 180.362 1238.05 169.155C1219.68 158.326 1200.12 147.981 1180.08 138.39L1167.31 132.248L1116.4 238.766L1108.96 235.534C1079.27 222.549 1048.51 211.773 1017.37 203.314L1024.75 173.573C1038.65 177.291 1052.76 181.601 1066.99 186.45L1080.4 190.976L1108.48 108.326L1095.06 103.8C1073.83 96.6346 1052.6 90.3846 1032.08 85.32C1010.74 80.0399 989.08 75.6219 967.744 72.2275L953.79 70.0185L935.148 186.558L927.066 185.534C894.792 181.493 862.196 179.823 829.923 180.47L828.63 149.867C843.338 149.543 858.155 149.705 872.756 150.298L886.926 150.89L890.536 63.6608L876.42 63.0682C854.707 62.1522 832.617 62.1522 810.903 63.0682C789.352 63.9302 767.37 65.7621 745.549 68.5099L731.486 70.2879L746.195 187.474L738.167 188.767C706.379 193.832 674.644 201.321 643.61 211.127L633.751 182.086C648.082 177.56 662.306 173.519 676.207 170.125L689.946 166.731L668.933 81.9796L655.194 85.3739C634.613 90.4385 613.438 96.6346 592.156 103.854C571.682 110.805 551.101 118.779 530.95 127.561L517.965 133.218L565.271 241.406L557.943 244.909C528.795 258.863 500.455 275.027 473.569 293.13L455.897 268.076C467.912 259.941 480.466 252.074 493.235 244.585L505.466 237.419L461.285 162.097L449.055 169.263C429.982 180.47 411.393 192.431 393.883 204.769C375.834 217.484 358.323 230.954 341.89 244.747L331.06 253.852L406.922 344.315L400.887 349.756C376.803 371.362 354.12 394.853 333.431 419.799L309.455 400.672C318.884 389.303 328.69 378.258 338.711 367.644L348.463 357.353L284.94 297.44L275.242 307.731C260.372 323.464 245.932 340.166 232.301 357.245C218.777 374.217 205.793 391.997 193.616 410.208L185.75 421.954L283.917 487.524L279.606 494.42C262.581 521.845 247.441 550.777 234.564 580.518L206.17 568.935C212.096 555.249 218.346 541.834 224.92 529.01L231.385 516.403L153.584 476.748L147.173 489.356C137.421 508.429 128.261 528.526 119.856 549.053C111.667 569.15 104.231 589.893 97.7121 610.852L93.4557 624.376L206.224 659.505L204.069 667.317C195.556 698.297 189.252 730.301 185.319 762.628L154.823 759.611C156.601 744.741 158.864 730.086 161.504 716.023L164.091 702.069L78.2081 686.121L75.6219 700.021C71.6888 720.926 68.6177 742.801 66.3548 764.999C64.1996 786.981 62.9065 808.964 62.5833 830.408L62.3678 844.578L180.416 846.517L180.524 854.653C181.062 887.196 183.972 919.684 189.144 951.473L159.026 957.076C156.709 942.852 154.77 928.197 153.261 913.327L151.86 899.264L64.9539 907.939L66.4086 922.055C68.6716 944.253 71.7426 966.128 75.6758 986.979C79.6089 1008.26 84.5657 1029.81 90.3846 1050.99L94.1561 1064.62L208.002 1033.31L210.426 1041.07C220.07 1071.95 232.032 1102.28 246.094 1131.43L218.777 1145.33C212.474 1132.29 206.439 1118.77 200.836 1105.03L195.502 1091.93L114.63 1124.85L120.018 1138C128.423 1158.53 137.582 1178.63 147.334 1197.7C157.464 1217.53 168.293 1236.76 179.554 1254.86L187.043 1266.88L287.365 1204.65L291.891 1211.38C309.832 1238.27 329.929 1264.02 351.642 1288.05L329.336 1309.07C319.53 1298.24 309.94 1286.92 300.781 1275.44L291.945 1264.35L223.626 1318.76L232.463 1329.86C246.094 1347 260.587 1363.7 275.404 1379.38C290.436 1395.32 306.222 1410.68 322.332 1425.17L332.892 1434.6L411.717 1346.73L417.967 1351.95C442.751 1372.75 469.259 1391.82 496.791 1408.79L481.274 1435.25C468.559 1427.44 456.22 1419.3 444.421 1411L432.837 1402.81L382.515 1474.2L394.045 1482.34C411.555 1494.73 430.089 1506.64 449.216 1517.84C467.589 1528.67 487.093 1539.02 507.19 1548.61L519.959 1554.75L570.874 1448.23L578.309 1451.47C608.05 1464.45 638.761 1475.23 669.903 1483.69L662.522 1513.43C648.675 1509.66 634.505 1505.4 620.281 1500.55L606.865 1496.02L578.794 1578.73L592.21 1583.25C613.438 1590.42 634.666 1596.67 655.194 1601.73C676.53 1607.01 698.189 1611.43 719.525 1614.83L733.48 1617.04L752.122 1500.44L760.204 1501.47C792.477 1505.51 825.074 1507.18 857.347 1506.53L858.586 1537.19C843.877 1537.51 829.061 1537.35 814.459 1536.76L800.289 1536.16L796.679 1623.39L810.85 1623.99C821.733 1624.42 832.67 1624.69 843.608 1624.69C854.545 1624.69 865.482 1624.47 876.366 1623.99C897.917 1623.12 919.9 1621.29 941.721 1618.54L955.783 1616.77L941.074 1499.58L949.102 1498.29C980.891 1493.22 1012.63 1485.73 1043.66 1475.93L1053.52 1504.97C1039.19 1509.49 1024.96 1513.53 1011.06 1516.93L997.27 1520.32L1018.28 1605.07L1032.02 1601.68C1052.6 1596.62 1073.78 1590.42 1095.06 1583.2C1115.53 1576.25 1136.11 1568.28 1156.27 1559.49L1169.25 1553.84L1121.94 1445.65L1129.27 1442.15C1158.42 1428.19 1186.76 1412.03 1213.65 1393.92L1231.32 1418.98C1219.3 1427.11 1206.75 1434.98 1193.98 1442.47L1181.75 1449.63L1225.88 1524.96L1238.11 1517.79C1257.18 1506.58 1275.77 1494.62 1293.28 1482.28C1311.33 1469.57 1328.84 1456.1 1345.27 1442.31L1356.1 1433.2L1280.24 1342.74L1286.27 1337.3C1310.36 1315.69 1333.04 1292.2 1353.73 1267.26L1377.71 1286.33C1368.28 1297.7 1358.47 1308.74 1348.45 1319.36L1338.7 1329.65L1402.22 1389.56L1411.92 1379.27C1426.79 1363.54 1441.23 1346.83 1454.86 1329.75C1468.38 1312.78 1481.42 1295 1493.55 1276.79L1501.41 1264.99L1403.25 1199.42L1407.5 1192.53C1424.53 1165.1 1439.67 1136.17 1452.54 1106.43L1480.94 1118.01C1475.01 1131.7 1468.76 1145.11 1462.19 1157.94L1455.78 1170.54L1533.58 1210.2L1539.99 1197.59C1549.74 1178.52 1558.9 1158.42 1567.31 1137.89C1575.49 1117.8 1582.93 1097 1589.45 1076.09L1593.65 1062.57L1480.88 1027.44L1483.04 1019.63C1491.55 988.649 1497.86 956.645 1501.79 924.318L1532.28 927.389C1530.51 942.313 1528.24 956.915 1525.6 970.977L1523.02 984.931L1608.9 1000.88L1611.49 986.979C1615.42 966.074 1618.49 944.199 1620.75 922.001C1622.91 900.019 1624.2 878.036 1624.52 856.593L1624.74 842.422L1506.69 840.483L1506.75 840.537ZM1592.57 919.199C1590.9 935.686 1588.75 952.012 1586.11 967.852L1555.94 962.249C1558.42 947.27 1560.46 931.807 1562.03 916.182L1563.43 902.066L1476.57 893.392L1475.17 907.454C1471.62 942.96 1465.04 978.197 1455.72 1012.14L1452.76 1022.86L1445.54 1046.08L1558.04 1081.16C1552.87 1096.73 1547.15 1112.19 1541.01 1127.22C1534.76 1142.53 1528.08 1157.56 1521.02 1172.05L1493.65 1158.1C1500.33 1144.36 1506.64 1130.13 1512.56 1115.64L1517.95 1102.49L1437.08 1069.57L1431.75 1082.67C1418.33 1115.53 1402.06 1147.48 1383.42 1177.55L1377.81 1186.55L1364.02 1207.23L1462.03 1272.7C1452.65 1286.17 1442.85 1299.37 1432.72 1312.03C1422.53 1324.8 1411.87 1337.35 1400.93 1349.37L1378.62 1328.3C1388.97 1316.88 1399.1 1305.02 1408.74 1292.85L1417.58 1281.75L1349.31 1227.39L1340.48 1238.48C1318.39 1266.23 1293.76 1292.31 1267.31 1316.07L1259.34 1323.24L1240.32 1339.18L1316.02 1429.48C1303.46 1439.61 1290.32 1449.53 1276.85 1459.06C1263.7 1468.33 1249.96 1477.38 1235.84 1486L1220.33 1459.55C1233.74 1451.36 1246.73 1442.79 1259.17 1434.01L1270.7 1425.82L1220.43 1354.48L1208.85 1362.67C1179.86 1383.09 1148.94 1401.25 1116.93 1416.55L1107.07 1421.29L1084.61 1431.1L1131.8 1539.07C1116.61 1545.38 1101.2 1551.2 1085.9 1556.37C1070.11 1561.7 1054.33 1566.5 1038.86 1570.65L1031.48 1540.85C1046.08 1536.92 1061.01 1532.39 1075.93 1527.33L1089.35 1522.8L1061.28 1440.15L1047.86 1444.68C1014.08 1456.1 979.328 1464.72 944.522 1470.27L933.531 1471.99L909.34 1475.01L923.995 1591.93C907.616 1593.65 891.236 1594.89 875.073 1595.54C858.802 1596.18 842.369 1596.35 826.043 1595.97L827.336 1565.31C842.8 1565.64 858.371 1565.47 873.834 1564.88L888.004 1564.29L884.394 1477.06L870.224 1477.65C834.933 1479.16 799.05 1477.65 763.652 1473.23L753.469 1471.94L728.523 1467.95L709.935 1584.33C693.933 1581.48 677.877 1578.03 661.875 1574.09C646.412 1570.27 630.572 1565.8 614.624 1560.73L624.483 1531.69C639.623 1536.49 654.602 1540.74 669.257 1544.35L682.996 1547.75L704.008 1463.05L690.269 1459.66C656.002 1451.2 622.059 1439.67 589.462 1425.44L580.141 1421.35L557.351 1410.46L506.543 1516.77C491.673 1509.33 477.233 1501.47 463.44 1493.33C449.216 1484.98 435.316 1476.2 421.9 1467.15L439.572 1442.09C452.233 1450.66 465.434 1458.96 478.903 1466.88L491.134 1474.04L535.26 1398.72L523.03 1391.55C492.427 1373.61 463.117 1352.98 435.908 1330.13L427.611 1323.18L409.184 1306.69L330.522 1394.41C318.614 1383.31 306.923 1371.73 295.716 1359.82C284.563 1348.02 273.68 1335.74 263.227 1323.07L287.203 1303.95C297.117 1315.96 307.462 1327.6 318.022 1338.81L327.72 1349.1L391.243 1289.18L381.491 1278.89C357.138 1253.09 334.778 1225.01 315.112 1195.54L309.078 1186.49L296.093 1165.53L195.987 1227.65C187.743 1213.81 179.823 1199.42 172.28 1184.66C164.953 1170.33 158.002 1155.46 151.429 1140.21L179.877 1128.63C186.073 1143.07 192.7 1157.18 199.65 1170.7L206.062 1183.31L283.809 1143.71L277.397 1131.1C261.341 1099.59 247.818 1066.4 237.258 1032.51L234.241 1022.75L227.56 998.401L113.93 1029.65C109.889 1013.7 106.333 997.647 103.369 981.699C100.46 966.02 97.9815 949.749 95.988 933.208L126.537 930.137C128.423 945.869 130.794 961.279 133.541 976.149L136.128 990.05L221.956 974.102L219.37 960.201C212.905 925.557 209.349 889.889 208.756 854.114L208.594 843.446L209.025 818.608L91.1928 816.668C91.7855 800.505 92.8631 784.126 94.4794 767.747C96.1496 751.206 98.3048 734.935 100.945 719.094L131.117 724.698C128.638 739.676 126.591 755.139 125.029 770.764L123.628 784.88L210.48 793.555L211.881 779.492C215.437 743.986 222.01 708.75 231.331 674.806L234.294 664.084L241.514 640.863L129.016 605.788C134.188 590.217 139.899 574.753 146.041 559.721C152.291 544.42 158.972 529.388 166.03 514.894L193.347 528.849C186.666 542.588 180.362 556.812 174.435 571.305L169.047 584.452L249.919 617.371L255.253 604.279C268.669 571.413 284.94 539.463 303.582 509.399L309.186 500.401L323.033 479.712L225.027 414.249C234.402 400.779 244.208 387.579 254.337 374.918C264.52 362.148 275.188 349.595 286.126 337.58L308.431 358.646C298.087 370.069 287.958 381.922 278.313 394.045L269.477 405.144L337.741 459.507L346.577 448.408C368.668 420.661 393.29 394.583 419.745 370.877L427.719 363.711L446.738 347.763L371.038 257.462C383.646 247.333 396.738 237.419 410.208 227.883C423.355 218.616 437.094 209.564 451.21 200.944L466.727 227.398C453.365 235.588 440.326 244.154 427.88 252.936L416.35 261.126L466.619 332.461L478.203 324.272C507.19 303.852 538.116 285.695 570.12 270.393L579.98 265.652L602.447 255.846L555.249 147.873C570.443 141.569 585.852 135.75 601.154 130.578C616.94 125.244 632.727 120.449 648.136 116.3L655.518 146.095C640.916 150.028 625.992 154.554 611.014 159.619L597.598 164.144L625.669 246.794L639.085 242.268C672.866 230.846 707.618 222.226 742.424 216.676L753.415 214.952L777.606 211.935L762.951 95.0182C779.331 93.2941 795.71 92.0549 811.873 91.4083C828.145 90.7618 844.578 90.6002 860.903 90.9773L859.664 121.634C844.2 121.311 828.576 121.419 813.166 122.065L799.05 122.658L802.66 209.887L816.83 209.295C852.174 207.786 888.004 209.295 923.456 213.713L933.585 214.952L958.531 218.939L977.119 102.561C993.121 105.417 1009.23 108.865 1025.18 112.798C1040.64 116.624 1056.48 121.095 1072.43 126.16L1062.57 155.201C1047.43 150.405 1032.45 146.149 1017.8 142.539L1004.06 139.145L983.046 223.842L996.785 227.236C1031.05 235.695 1065 247.225 1097.59 261.449L1106.91 265.544L1129.7 276.428L1180.51 170.125C1195.38 177.56 1209.82 185.427 1223.67 193.562C1237.89 201.913 1251.79 210.696 1265.15 219.747L1247.48 244.855C1234.82 236.288 1221.62 227.991 1208.15 220.07L1195.92 212.905L1151.79 288.227L1164.02 295.393C1194.63 313.334 1223.94 333.97 1251.15 356.814L1259.39 363.765L1277.82 380.252L1356.48 292.537C1368.39 303.636 1380.08 315.22 1391.28 327.127C1402.38 338.873 1413.27 351.211 1423.77 363.873L1399.8 382.999C1389.88 370.985 1379.54 359.347 1368.98 348.194L1359.28 337.903L1295.81 397.762L1305.51 408.053C1329.86 433.861 1352.22 461.932 1371.94 491.403L1377.98 500.401L1390.96 521.36L1491.12 459.238C1499.31 473.085 1507.28 487.47 1514.83 502.233C1522.1 516.565 1529.11 531.435 1535.68 546.683L1507.28 558.267C1501.03 543.827 1494.41 529.711 1487.51 516.134L1481.1 503.526L1403.35 543.127L1409.76 555.734C1425.82 587.253 1439.34 620.443 1449.9 654.332L1452.92 664.084L1459.6 688.437L1573.23 657.188C1577.27 673.136 1580.83 689.192 1583.79 705.14C1586.7 720.872 1589.18 737.09 1591.17 753.63L1560.62 756.702C1558.74 741.023 1556.37 725.614 1553.62 710.743L1551.03 696.842L1465.21 712.79L1467.79 726.691C1474.26 761.335 1477.81 797.003 1478.41 832.778L1478.57 843.446L1478.14 868.284L1595.97 870.224C1595.43 886.387 1594.3 902.767 1592.68 919.146L1592.57 919.199ZM843.5 1C378.959 1 1 378.959 1 843.5C1 1308.04 378.959 1686 843.5 1686C1308.04 1686 1686 1308.04 1686 843.5C1686 378.959 1308.1 1 843.5 1ZM843.5 1653.03C397.17 1653.03 34.0276 1289.88 34.0276 843.554C34.0276 397.223 397.17 34.0276 843.5 34.0276C1289.83 34.0276 1652.97 397.17 1652.97 843.5C1652.97 1289.83 1289.83 1652.97 843.5 1652.97V1653.03Z"/>
</mask>
<path d="M843.5 236.988C509.075 236.988 236.988 509.075 236.988 843.5C236.988 1177.92 509.075 1450.01 843.5 1450.01C1177.92 1450.01 1450.01 1177.92 1450.01 843.5C1450.01 509.075 1177.92 236.988 843.5 236.988ZM843.5 1416.98C527.286 1416.98 270.016 1159.71 270.016 843.5C270.016 527.286 527.286 270.016 843.5 270.016C1159.71 270.016 1416.98 527.286 1416.98 843.5C1416.98 1159.71 1159.71 1416.98 843.5 1416.98ZM1506.75 840.537L1506.58 832.401C1506.05 799.858 1503.14 767.37 1497.96 735.581L1528.14 729.978C1530.45 744.202 1532.39 758.857 1533.9 773.727L1535.3 787.79L1622.21 779.115L1620.81 764.999C1618.54 742.855 1615.47 720.98 1611.54 700.075C1607.61 678.739 1602.65 657.242 1596.83 636.067L1593.06 622.436L1479.21 653.74L1476.79 645.981C1467.15 615.109 1455.18 584.775 1441.12 555.627L1468.44 541.726C1474.74 554.764 1480.78 568.288 1486.38 582.027L1491.71 595.12L1572.59 562.2L1567.25 549.053C1558.85 528.526 1549.69 508.429 1539.94 489.356C1529.81 469.528 1518.98 450.294 1507.72 432.191L1500.23 420.176L1399.9 482.405L1395.38 475.671C1377.44 448.785 1357.34 423.031 1335.63 399.001L1357.93 377.989C1367.74 388.818 1377.33 400.133 1386.49 411.609L1395.32 422.708L1463.64 368.291L1454.81 357.245C1441.18 340.112 1426.68 323.464 1411.87 307.677C1396.83 291.783 1381.05 276.374 1364.94 261.88L1354.38 252.452L1275.55 340.328L1269.3 335.101C1244.52 314.304 1218.01 295.231 1190.48 278.259L1206 251.805C1218.71 259.617 1231.05 267.699 1242.85 276.05L1254.43 284.24L1304.75 212.851L1293.22 204.661C1275.71 192.269 1257.13 180.362 1238.05 169.155C1219.68 158.326 1200.12 147.981 1180.08 138.39L1167.31 132.248L1116.4 238.766L1108.96 235.534C1079.27 222.549 1048.51 211.773 1017.37 203.314L1024.75 173.573C1038.65 177.291 1052.76 181.601 1066.99 186.45L1080.4 190.976L1108.48 108.326L1095.06 103.8C1073.83 96.6346 1052.6 90.3846 1032.08 85.32C1010.74 80.0399 989.08 75.6219 967.744 72.2275L953.79 70.0185L935.148 186.558L927.066 185.534C894.792 181.493 862.196 179.823 829.923 180.47L828.63 149.867C843.338 149.543 858.155 149.705 872.756 150.298L886.926 150.89L890.536 63.6608L876.42 63.0682C854.707 62.1522 832.617 62.1522 810.903 63.0682C789.352 63.9302 767.37 65.7621 745.549 68.5099L731.486 70.2879L746.195 187.474L738.167 188.767C706.379 193.832 674.644 201.321 643.61 211.127L633.751 182.086C648.082 177.56 662.306 173.519 676.207 170.125L689.946 166.731L668.933 81.9796L655.194 85.3739C634.613 90.4385 613.438 96.6346 592.156 103.854C571.682 110.805 551.101 118.779 530.95 127.561L517.965 133.218L565.271 241.406L557.943 244.909C528.795 258.863 500.455 275.027 473.569 293.13L455.897 268.076C467.912 259.941 480.466 252.074 493.235 244.585L505.466 237.419L461.285 162.097L449.055 169.263C429.982 180.47 411.393 192.431 393.883 204.769C375.834 217.484 358.323 230.954 341.89 244.747L331.06 253.852L406.922 344.315L400.887 349.756C376.803 371.362 354.12 394.853 333.431 419.799L309.455 400.672C318.884 389.303 328.69 378.258 338.711 367.644L348.463 357.353L284.94 297.44L275.242 307.731C260.372 323.464 245.932 340.166 232.301 357.245C218.777 374.217 205.793 391.997 193.616 410.208L185.75 421.954L283.917 487.524L279.606 494.42C262.581 521.845 247.441 550.777 234.564 580.518L206.17 568.935C212.096 555.249 218.346 541.834 224.92 529.01L231.385 516.403L153.584 476.748L147.173 489.356C137.421 508.429 128.261 528.526 119.856 549.053C111.667 569.15 104.231 589.893 97.7121 610.852L93.4557 624.376L206.224 659.505L204.069 667.317C195.556 698.297 189.252 730.301 185.319 762.628L154.823 759.611C156.601 744.741 158.864 730.086 161.504 716.023L164.091 702.069L78.2081 686.121L75.6219 700.021C71.6888 720.926 68.6177 742.801 66.3548 764.999C64.1996 786.981 62.9065 808.964 62.5833 830.408L62.3678 844.578L180.416 846.517L180.524 854.653C181.062 887.196 183.972 919.684 189.144 951.473L159.026 957.076C156.709 942.852 154.77 928.197 153.261 913.327L151.86 899.264L64.9539 907.939L66.4086 922.055C68.6716 944.253 71.7426 966.128 75.6758 986.979C79.6089 1008.26 84.5657 1029.81 90.3846 1050.99L94.1561 1064.62L208.002 1033.31L210.426 1041.07C220.07 1071.95 232.032 1102.28 246.094 1131.43L218.777 1145.33C212.474 1132.29 206.439 1118.77 200.836 1105.03L195.502 1091.93L114.63 1124.85L120.018 1138C128.423 1158.53 137.582 1178.63 147.334 1197.7C157.464 1217.53 168.293 1236.76 179.554 1254.86L187.043 1266.88L287.365 1204.65L291.891 1211.38C309.832 1238.27 329.929 1264.02 351.642 1288.05L329.336 1309.07C319.53 1298.24 309.94 1286.92 300.781 1275.44L291.945 1264.35L223.626 1318.76L232.463 1329.86C246.094 1347 260.587 1363.7 275.404 1379.38C290.436 1395.32 306.222 1410.68 322.332 1425.17L332.892 1434.6L411.717 1346.73L417.967 1351.95C442.751 1372.75 469.259 1391.82 496.791 1408.79L481.274 1435.25C468.559 1427.44 456.22 1419.3 444.421 1411L432.837 1402.81L382.515 1474.2L394.045 1482.34C411.555 1494.73 430.089 1506.64 449.216 1517.84C467.589 1528.67 487.093 1539.02 507.19 1548.61L519.959 1554.75L570.874 1448.23L578.309 1451.47C608.05 1464.45 638.761 1475.23 669.903 1483.69L662.522 1513.43C648.675 1509.66 634.505 1505.4 620.281 1500.55L606.865 1496.02L578.794 1578.73L592.21 1583.25C613.438 1590.42 634.666 1596.67 655.194 1601.73C676.53 1607.01 698.189 1611.43 719.525 1614.83L733.48 1617.04L752.122 1500.44L760.204 1501.47C792.477 1505.51 825.074 1507.18 857.347 1506.53L858.586 1537.19C843.877 1537.51 829.061 1537.35 814.459 1536.76L800.289 1536.16L796.679 1623.39L810.85 1623.99C821.733 1624.42 832.67 1624.69 843.608 1624.69C854.545 1624.69 865.482 1624.47 876.366 1623.99C897.917 1623.12 919.9 1621.29 941.721 1618.54L955.783 1616.77L941.074 1499.58L949.102 1498.29C980.891 1493.22 1012.63 1485.73 1043.66 1475.93L1053.52 1504.97C1039.19 1509.49 1024.96 1513.53 1011.06 1516.93L997.27 1520.32L1018.28 1605.07L1032.02 1601.68C1052.6 1596.62 1073.78 1590.42 1095.06 1583.2C1115.53 1576.25 1136.11 1568.28 1156.27 1559.49L1169.25 1553.84L1121.94 1445.65L1129.27 1442.15C1158.42 1428.19 1186.76 1412.03 1213.65 1393.92L1231.32 1418.98C1219.3 1427.11 1206.75 1434.98 1193.98 1442.47L1181.75 1449.63L1225.88 1524.96L1238.11 1517.79C1257.18 1506.58 1275.77 1494.62 1293.28 1482.28C1311.33 1469.57 1328.84 1456.1 1345.27 1442.31L1356.1 1433.2L1280.24 1342.74L1286.27 1337.3C1310.36 1315.69 1333.04 1292.2 1353.73 1267.26L1377.71 1286.33C1368.28 1297.7 1358.47 1308.74 1348.45 1319.36L1338.7 1329.65L1402.22 1389.56L1411.92 1379.27C1426.79 1363.54 1441.23 1346.83 1454.86 1329.75C1468.38 1312.78 1481.42 1295 1493.55 1276.79L1501.41 1264.99L1403.25 1199.42L1407.5 1192.53C1424.53 1165.1 1439.67 1136.17 1452.54 1106.43L1480.94 1118.01C1475.01 1131.7 1468.76 1145.11 1462.19 1157.94L1455.78 1170.54L1533.58 1210.2L1539.99 1197.59C1549.74 1178.52 1558.9 1158.42 1567.31 1137.89C1575.49 1117.8 1582.93 1097 1589.45 1076.09L1593.65 1062.57L1480.88 1027.44L1483.04 1019.63C1491.55 988.649 1497.86 956.645 1501.79 924.318L1532.28 927.389C1530.51 942.313 1528.24 956.915 1525.6 970.977L1523.02 984.931L1608.9 1000.88L1611.49 986.979C1615.42 966.074 1618.49 944.199 1620.75 922.001C1622.91 900.019 1624.2 878.036 1624.52 856.593L1624.74 842.422L1506.69 840.483L1506.75 840.537ZM1592.57 919.199C1590.9 935.686 1588.75 952.012 1586.11 967.852L1555.94 962.249C1558.42 947.27 1560.46 931.807 1562.03 916.182L1563.43 902.066L1476.57 893.392L1475.17 907.454C1471.62 942.96 1465.04 978.197 1455.72 1012.14L1452.76 1022.86L1445.54 1046.08L1558.04 1081.16C1552.87 1096.73 1547.15 1112.19 1541.01 1127.22C1534.76 1142.53 1528.08 1157.56 1521.02 1172.05L1493.65 1158.1C1500.33 1144.36 1506.64 1130.13 1512.56 1115.64L1517.95 1102.49L1437.08 1069.57L1431.75 1082.67C1418.33 1115.53 1402.06 1147.48 1383.42 1177.55L1377.81 1186.55L1364.02 1207.23L1462.03 1272.7C1452.65 1286.17 1442.85 1299.37 1432.72 1312.03C1422.53 1324.8 1411.87 1337.35 1400.93 1349.37L1378.62 1328.3C1388.97 1316.88 1399.1 1305.02 1408.74 1292.85L1417.58 1281.75L1349.31 1227.39L1340.48 1238.48C1318.39 1266.23 1293.76 1292.31 1267.31 1316.07L1259.34 1323.24L1240.32 1339.18L1316.02 1429.48C1303.46 1439.61 1290.32 1449.53 1276.85 1459.06C1263.7 1468.33 1249.96 1477.38 1235.84 1486L1220.33 1459.55C1233.74 1451.36 1246.73 1442.79 1259.17 1434.01L1270.7 1425.82L1220.43 1354.48L1208.85 1362.67C1179.86 1383.09 1148.94 1401.25 1116.93 1416.55L1107.07 1421.29L1084.61 1431.1L1131.8 1539.07C1116.61 1545.38 1101.2 1551.2 1085.9 1556.37C1070.11 1561.7 1054.33 1566.5 1038.86 1570.65L1031.48 1540.85C1046.08 1536.92 1061.01 1532.39 1075.93 1527.33L1089.35 1522.8L1061.28 1440.15L1047.86 1444.68C1014.08 1456.1 979.328 1464.72 944.522 1470.27L933.531 1471.99L909.34 1475.01L923.995 1591.93C907.616 1593.65 891.236 1594.89 875.073 1595.54C858.802 1596.18 842.369 1596.35 826.043 1595.97L827.336 1565.31C842.8 1565.64 858.371 1565.47 873.834 1564.88L888.004 1564.29L884.394 1477.06L870.224 1477.65C834.933 1479.16 799.05 1477.65 763.652 1473.23L753.469 1471.94L728.523 1467.95L709.935 1584.33C693.933 1581.48 677.877 1578.03 661.875 1574.09C646.412 1570.27 630.572 1565.8 614.624 1560.73L624.483 1531.69C639.623 1536.49 654.602 1540.74 669.257 1544.35L682.996 1547.75L704.008 1463.05L690.269 1459.66C656.002 1451.2 622.059 1439.67 589.462 1425.44L580.141 1421.35L557.351 1410.46L506.543 1516.77C491.673 1509.33 477.233 1501.47 463.44 1493.33C449.216 1484.98 435.316 1476.2 421.9 1467.15L439.572 1442.09C452.233 1450.66 465.434 1458.96 478.903 1466.88L491.134 1474.04L535.26 1398.72L523.03 1391.55C492.427 1373.61 463.117 1352.98 435.908 1330.13L427.611 1323.18L409.184 1306.69L330.522 1394.41C318.614 1383.31 306.923 1371.73 295.716 1359.82C284.563 1348.02 273.68 1335.74 263.227 1323.07L287.203 1303.95C297.117 1315.96 307.462 1327.6 318.022 1338.81L327.72 1349.1L391.243 1289.18L381.491 1278.89C357.138 1253.09 334.778 1225.01 315.112 1195.54L309.078 1186.49L296.093 1165.53L195.987 1227.65C187.743 1213.81 179.823 1199.42 172.28 1184.66C164.953 1170.33 158.002 1155.46 151.429 1140.21L179.877 1128.63C186.073 1143.07 192.7 1157.18 199.65 1170.7L206.062 1183.31L283.809 1143.71L277.397 1131.1C261.341 1099.59 247.818 1066.4 237.258 1032.51L234.241 1022.75L227.56 998.401L113.93 1029.65C109.889 1013.7 106.333 997.647 103.369 981.699C100.46 966.02 97.9815 949.749 95.988 933.208L126.537 930.137C128.423 945.869 130.794 961.279 133.541 976.149L136.128 990.05L221.956 974.102L219.37 960.201C212.905 925.557 209.349 889.889 208.756 854.114L208.594 843.446L209.025 818.608L91.1928 816.668C91.7855 800.505 92.8631 784.126 94.4794 767.747C96.1496 751.206 98.3048 734.935 100.945 719.094L131.117 724.698C128.638 739.676 126.591 755.139 125.029 770.764L123.628 784.88L210.48 793.555L211.881 779.492C215.437 743.986 222.01 708.75 231.331 674.806L234.294 664.084L241.514 640.863L129.016 605.788C134.188 590.217 139.899 574.753 146.041 559.721C152.291 544.42 158.972 529.388 166.03 514.894L193.347 528.849C186.666 542.588 180.362 556.812 174.435 571.305L169.047 584.452L249.919 617.371L255.253 604.279C268.669 571.413 284.94 539.463 303.582 509.399L309.186 500.401L323.033 479.712L225.027 414.249C234.402 400.779 244.208 387.579 254.337 374.918C264.52 362.148 275.188 349.595 286.126 337.58L308.431 358.646C298.087 370.069 287.958 381.922 278.313 394.045L269.477 405.144L337.741 459.507L346.577 448.408C368.668 420.661 393.29 394.583 419.745 370.877L427.719 363.711L446.738 347.763L371.038 257.462C383.646 247.333 396.738 237.419 410.208 227.883C423.355 218.616 437.094 209.564 451.21 200.944L466.727 227.398C453.365 235.588 440.326 244.154 427.88 252.936L416.35 261.126L466.619 332.461L478.203 324.272C507.19 303.852 538.116 285.695 570.12 270.393L579.98 265.652L602.447 255.846L555.249 147.873C570.443 141.569 585.852 135.75 601.154 130.578C616.94 125.244 632.727 120.449 648.136 116.3L655.518 146.095C640.916 150.028 625.992 154.554 611.014 159.619L597.598 164.144L625.669 246.794L639.085 242.268C672.866 230.846 707.618 222.226 742.424 216.676L753.415 214.952L777.606 211.935L762.951 95.0182C779.331 93.2941 795.71 92.0549 811.873 91.4083C828.145 90.7618 844.578 90.6002 860.903 90.9773L859.664 121.634C844.2 121.311 828.576 121.419 813.166 122.065L799.05 122.658L802.66 209.887L816.83 209.295C852.174 207.786 888.004 209.295 923.456 213.713L933.585 214.952L958.531 218.939L977.119 102.561C993.121 105.417 1009.23 108.865 1025.18 112.798C1040.64 116.624 1056.48 121.095 1072.43 126.16L1062.57 155.201C1047.43 150.405 1032.45 146.149 1017.8 142.539L1004.06 139.145L983.046 223.842L996.785 227.236C1031.05 235.695 1065 247.225 1097.59 261.449L1106.91 265.544L1129.7 276.428L1180.51 170.125C1195.38 177.56 1209.82 185.427 1223.67 193.562C1237.89 201.913 1251.79 210.696 1265.15 219.747L1247.48 244.855C1234.82 236.288 1221.62 227.991 1208.15 220.07L1195.92 212.905L1151.79 288.227L1164.02 295.393C1194.63 313.334 1223.94 333.97 1251.15 356.814L1259.39 363.765L1277.82 380.252L1356.48 292.537C1368.39 303.636 1380.08 315.22 1391.28 327.127C1402.38 338.873 1413.27 351.211 1423.77 363.873L1399.8 382.999C1389.88 370.985 1379.54 359.347 1368.98 348.194L1359.28 337.903L1295.81 397.762L1305.51 408.053C1329.86 433.861 1352.22 461.932 1371.94 491.403L1377.98 500.401L1390.96 521.36L1491.12 459.238C1499.31 473.085 1507.28 487.47 1514.83 502.233C1522.1 516.565 1529.11 531.435 1535.68 546.683L1507.28 558.267C1501.03 543.827 1494.41 529.711 1487.51 516.134L1481.1 503.526L1403.35 543.127L1409.76 555.734C1425.82 587.253 1439.34 620.443 1449.9 654.332L1452.92 664.084L1459.6 688.437L1573.23 657.188C1577.27 673.136 1580.83 689.192 1583.79 705.14C1586.7 720.872 1589.18 737.09 1591.17 753.63L1560.62 756.702C1558.74 741.023 1556.37 725.614 1553.62 710.743L1551.03 696.842L1465.21 712.79L1467.79 726.691C1474.26 761.335 1477.81 797.003 1478.41 832.778L1478.57 843.446L1478.14 868.284L1595.97 870.224C1595.43 886.387 1594.3 902.767 1592.68 919.146L1592.57 919.199ZM843.5 1C378.959 1 1 378.959 1 843.5C1 1308.04 378.959 1686 843.5 1686C1308.04 1686 1686 1308.04 1686 843.5C1686 378.959 1308.1 1 843.5 1ZM843.5 1653.03C397.17 1653.03 34.0276 1289.88 34.0276 843.554C34.0276 397.223 397.17 34.0276 843.5 34.0276C1289.83 34.0276 1652.97 397.17 1652.97 843.5C1652.97 1289.83 1289.83 1652.97 843.5 1652.97V1653.03Z" stroke="#A27F24" stroke-width="2" mask="url(#path-1-outside-1_19_2)"/>
</svg>
