<svg width="1219" height="1219" viewBox="0 0 1219 1219" fill="none" xmlns="http://www.w3.org/2000/svg">
<mask id="path-1-outside-1_188_2" maskUnits="userSpaceOnUse" x="0" y="0" width="1219" height="1219" fill="black">
<rect fill="white" width="1219" height="1219"/>
<path d="M609.5 171.444C851.04 171.444 1047.56 367.96 1047.56 609.5C1047.56 851.04 851.04 1047.56 609.5 1047.56C367.96 1047.56 171.444 851.04 171.444 609.5C171.444 367.96 367.96 171.444 609.5 171.444ZM609.5 1023.7C837.887 1023.7 1023.7 837.887 1023.7 609.5C1023.7 381.113 837.887 195.298 609.5 195.298C381.113 195.298 195.298 381.113 195.298 609.5C195.298 837.887 381.113 1023.7 609.5 1023.7ZM130.467 607.36L130.584 601.484C130.973 577.98 133.074 554.514 136.81 531.555L115.018 527.508C113.345 537.781 111.944 548.366 110.854 559.106L109.843 569.263L47.0743 562.998L48.086 552.802C49.7204 536.808 51.9385 521.009 54.7792 505.911C57.6199 490.501 61.2001 474.974 65.4028 459.681L68.1268 449.835L150.352 472.445L152.103 466.841C159.069 444.543 167.708 422.634 177.865 401.582L158.135 391.542C153.582 400.959 149.224 410.727 145.177 420.65L141.324 430.106L82.9142 406.329L86.7666 396.834C92.8372 382.008 99.4526 367.493 106.496 353.718C113.812 339.397 121.634 325.505 129.767 312.43L135.176 303.752L207.634 348.698L210.903 343.833C223.861 324.415 238.376 305.814 254.058 288.459L237.948 273.282C230.866 281.104 223.939 289.276 217.324 297.564L210.942 305.581L161.599 266.278L167.98 258.3C177.826 245.925 188.294 233.901 198.995 222.499C209.852 211.019 221.254 199.89 232.889 189.422L240.516 182.612L297.448 246.081L301.962 242.306C319.862 227.286 339.008 213.51 358.893 201.252L347.686 182.145C338.502 187.788 329.591 193.625 321.069 199.657L312.702 205.572L276.356 154.01L284.684 148.095C297.331 139.145 310.756 130.545 324.532 122.451C337.802 114.629 351.927 107.158 366.404 100.231L375.626 95.7948L412.4 172.728L417.77 170.393C439.212 161.015 461.432 153.232 483.924 147.123L478.593 125.642C468.553 128.327 458.358 131.44 448.084 134.942L438.395 138.211L418.12 78.5169L427.81 75.2481C443.142 70.0726 458.474 65.5585 473.301 61.9006C488.711 58.087 504.354 54.8961 519.764 52.4445L529.843 50.849L543.307 135.02L549.144 134.281C572.454 131.362 595.997 130.156 619.306 130.623L620.24 108.52C609.617 108.286 598.915 108.403 588.37 108.831L578.135 109.259L575.528 46.2571L585.723 45.8291C601.406 45.1675 617.361 45.1675 633.043 45.8291C648.609 46.4517 664.486 47.7748 680.246 49.7594L690.402 51.0436L679.779 135.682L685.577 136.616C708.536 140.274 731.457 145.683 753.871 152.765L760.993 131.79C750.641 128.522 740.368 125.603 730.328 123.151L720.405 120.7L735.582 59.4879L745.505 61.9395C760.37 65.5974 775.663 70.0726 791.034 75.287C805.822 80.307 820.687 86.0663 835.241 92.4093L844.619 96.4952L810.452 174.635L815.745 177.164C836.797 187.243 857.266 198.917 876.684 211.992L889.448 193.897C880.77 188.021 871.703 182.34 862.481 176.931L853.647 171.755L885.557 117.353L894.39 122.529C908.166 130.623 921.591 139.262 934.238 148.173C947.275 157.357 959.922 167.085 971.79 177.047L979.612 183.624L924.821 248.961L929.179 252.891C946.574 268.496 962.957 285.462 977.9 303.479L995.217 289.665C988.407 281.454 981.324 273.477 974.086 265.811L967.043 258.378L1012.92 215.105L1019.93 222.538C1030.67 233.901 1041.1 245.964 1050.94 258.3C1060.71 270.558 1070.09 283.4 1078.88 296.553L1084.56 305.036L1013.66 352.394L1016.78 357.375C1029.07 377.183 1040.01 398.08 1049.31 419.56L1069.82 411.194C1065.53 401.31 1061.02 391.62 1056.27 382.358L1051.6 373.252L1107.8 344.612L1112.43 353.718C1119.47 367.493 1126.08 382.008 1132.16 396.834C1138.07 411.349 1143.44 426.331 1148.15 441.469L1151.22 451.236L1069.78 476.608L1071.33 482.251C1077.48 504.626 1082.03 527.741 1084.87 551.09L1106.9 548.911C1105.62 538.17 1103.98 527.586 1102.07 517.429L1100.21 507.35L1162.24 495.832L1164.1 505.872C1166.94 520.97 1169.16 536.77 1170.8 552.802C1172.35 568.679 1173.29 584.556 1173.52 600.044L1173.68 610.278L1088.42 611.679L1088.34 617.555C1087.95 641.059 1085.85 664.525 1082.11 687.484L1103.86 691.531C1105.54 681.258 1106.94 670.673 1108.03 659.933L1109.04 649.776L1171.81 656.041L1170.76 666.237C1169.12 682.269 1166.91 698.069 1164.07 713.128C1161.22 728.499 1157.64 744.065 1153.44 759.358L1150.72 769.204L1068.49 746.594L1066.74 752.198C1059.78 774.496 1051.14 796.405 1040.98 817.457L1060.71 827.497C1065.26 818.08 1069.62 808.312 1073.67 798.389L1077.52 788.933L1135.93 812.71L1132.04 822.205C1125.97 837.031 1119.35 851.546 1112.31 865.321C1104.99 879.642 1097.17 893.534 1089.04 906.609L1083.63 915.287L1011.17 870.341L1007.9 875.206C994.944 894.624 980.429 913.225 964.747 930.58L980.857 945.757C987.94 937.935 994.866 929.763 1001.48 921.474L1007.86 913.458L1057.21 952.761L1050.82 960.778C1040.98 973.152 1030.51 985.216 1019.81 996.54C1008.95 1008.06 997.552 1019.15 985.916 1029.62L978.289 1036.43L921.358 972.958L916.844 976.733C898.943 991.753 879.797 1005.53 859.912 1017.79L871.12 1036.89C880.303 1031.25 889.215 1025.38 897.737 1019.38L906.103 1013.47L942.449 1065.03L934.122 1070.9C921.474 1079.85 908.088 1088.45 894.273 1096.55C881.004 1104.37 866.917 1111.84 852.402 1118.77L843.179 1123.21L806.405 1046.27L801.035 1048.61C779.555 1057.99 757.374 1065.77 734.881 1071.88L740.212 1093.36C750.213 1090.63 760.448 1087.56 770.721 1084.06L780.411 1080.79L800.685 1140.52L790.995 1143.79C775.663 1148.97 760.331 1153.48 745.505 1157.14C730.095 1160.95 714.451 1164.14 699.041 1166.59L688.963 1168.19L675.498 1083.98L669.661 1084.72C646.352 1087.64 622.809 1088.84 599.499 1088.38L598.604 1110.52C609.228 1110.75 619.929 1110.64 630.475 1110.21L640.709 1109.78L643.316 1172.78L633.082 1173.21C625.221 1173.52 617.322 1173.72 609.422 1173.72C601.523 1173.72 593.623 1173.56 585.762 1173.21C570.197 1172.59 554.32 1171.26 538.56 1169.28L528.403 1168L539.027 1083.36L533.228 1082.42C510.269 1078.77 487.349 1073.36 464.934 1066.27L457.813 1087.25C468.164 1090.52 478.437 1093.44 488.477 1095.89L498.439 1098.34L483.263 1159.55L473.339 1157.1C458.474 1153.44 443.181 1148.97 427.81 1143.75C413.023 1138.73 398.157 1132.97 383.604 1126.63L374.225 1122.54L408.392 1044.4L403.099 1041.87C382.047 1031.8 361.578 1020.12 342.16 1007.05L329.396 1025.14C338.074 1031.02 347.141 1036.7 356.364 1042.11L365.197 1047.28L333.327 1101.69L324.493 1096.51C310.717 1088.42 297.292 1079.78 284.645 1070.87C271.609 1061.68 258.962 1051.95 247.093 1041.99L239.271 1035.42L294.062 970.078L289.704 966.148C272.309 950.543 255.926 933.577 240.983 915.56L223.667 929.335C230.476 937.546 237.559 945.523 244.797 953.189L251.84 960.622L205.961 1003.89L198.956 996.462C188.216 985.099 177.787 973.036 167.942 960.7C158.174 948.442 148.757 935.6 140.001 922.447L134.32 913.925L205.221 866.567L202.147 861.586C189.85 841.778 178.915 820.881 169.615 799.401L149.107 807.767C153.388 817.652 157.902 827.341 162.649 836.603L167.28 845.709L111.088 874.349L106.457 865.244C99.4137 851.468 92.7984 836.953 86.7278 822.127C80.8128 807.612 75.4426 792.591 70.734 777.492L67.6987 767.725L149.146 742.353L147.589 736.71C141.441 714.335 136.888 691.22 134.047 667.871L112.022 670.089C113.306 680.869 114.94 691.414 116.847 701.571L118.715 711.65L56.6861 723.168L54.8182 713.128C51.9774 698.03 49.7593 682.231 48.1249 666.198C46.5684 650.321 45.6345 634.444 45.401 618.956L45.2453 608.722L130.506 607.321L130.467 607.36ZM68.4771 664.174C69.6834 676.082 71.2399 687.873 73.1467 699.314L94.9386 695.267C93.1486 684.449 91.6698 673.28 90.5413 661.995L89.5296 651.8L152.259 645.535L153.271 655.691C155.839 681.336 160.587 706.785 167.319 731.301L169.459 739.045L174.674 755.817L93.421 781.15C97.1568 792.396 101.282 803.565 105.718 814.422C110.232 825.473 115.057 836.33 120.155 846.798L139.923 836.72C135.098 826.796 130.545 816.523 126.265 806.055L122.373 796.56L180.783 772.784L184.636 782.24C194.325 805.977 206.077 829.053 219.542 850.768L223.589 857.266L233.551 872.209L162.766 919.49C169.537 929.218 176.619 938.752 183.935 947.897C191.29 957.12 198.995 966.187 206.895 974.865L223.005 959.649C215.533 951.399 208.218 942.838 201.252 934.044L194.87 926.027L244.174 886.763L250.556 894.779C266.511 914.82 284.295 933.655 303.402 950.816L309.161 955.991L322.898 967.51L268.223 1032.73C277.29 1040.05 286.785 1047.21 296.514 1054.09C306.009 1060.79 315.932 1067.32 326.127 1073.55L337.335 1054.44C327.645 1048.53 318.267 1042.34 309.278 1036L300.95 1030.08L337.257 978.562L345.623 984.476C366.559 999.225 388.896 1012.34 412.011 1023.39L419.132 1026.81L435.359 1033.9L401.271 1111.88C412.244 1116.43 423.374 1120.64 434.425 1124.37C445.827 1128.23 457.229 1131.69 468.397 1134.68L473.729 1113.17C463.183 1110.32 452.404 1107.06 441.625 1103.4L431.935 1100.13L452.209 1040.43L461.899 1043.7C486.298 1051.95 511.398 1058.18 536.536 1062.19L544.474 1063.43L561.947 1065.61L551.362 1150.06C563.192 1151.3 575.022 1152.2 586.696 1152.66C598.448 1153.13 610.317 1153.25 622.108 1152.97L621.174 1130.83C610.006 1131.07 598.76 1130.95 587.591 1130.52L577.357 1130.09L579.964 1067.09L590.199 1067.52C615.687 1068.61 641.604 1067.52 667.171 1064.33L674.525 1063.39L692.543 1060.51L705.968 1144.57C717.526 1142.51 729.122 1140.02 740.679 1137.18C751.848 1134.41 763.289 1131.18 774.807 1127.52L767.686 1106.55C756.751 1110.01 745.933 1113.09 735.348 1115.69L725.425 1118.15L710.249 1056.97L720.172 1054.52C744.921 1048.41 769.437 1040.08 792.98 1029.81L799.712 1026.85L816.173 1018.99L852.869 1095.77C863.609 1090.4 874.038 1084.72 884 1078.84C894.273 1072.81 904.313 1066.47 914.003 1059.93L901.239 1041.84C892.094 1048.02 882.56 1054.02 872.832 1059.74L863.998 1064.91L832.128 1010.51L840.961 1005.33C863.064 992.376 884.234 977.472 903.885 960.972L909.878 955.952L923.187 944.045L980.001 1007.4C988.601 999.381 997.046 991.014 1005.14 982.414C1013.2 973.892 1021.06 965.019 1028.61 955.875L1011.29 942.06C1004.13 950.738 996.657 959.143 989.029 967.237L982.025 974.67L936.145 931.398L943.189 923.965C960.778 905.325 976.927 885.051 991.131 863.765L995.489 857.227L1004.87 842.09L1077.17 886.958C1083.12 876.957 1088.84 866.567 1094.29 855.904C1099.58 845.553 1104.6 834.813 1109.35 823.8L1088.81 815.433C1084.33 825.862 1079.54 836.058 1074.52 845.825L1069.89 854.931L1013.74 826.329L1018.37 817.224C1029.97 794.459 1039.73 770.488 1047.36 746.011L1049.54 738.967L1054.37 721.378L1136.44 743.948C1139.35 732.43 1141.92 720.833 1144.06 709.315C1146.16 697.991 1147.95 686.239 1149.39 674.292L1127.33 672.074C1125.97 683.437 1124.26 694.566 1122.27 705.307L1120.4 715.346L1058.41 703.828L1060.28 693.788C1064.95 668.766 1067.52 643.005 1067.95 617.166L1068.06 609.461L1067.75 591.522L1152.86 590.121C1152.43 578.447 1151.65 566.617 1150.48 554.787C1149.28 542.84 1147.72 531.088 1145.81 519.647L1124.02 523.694C1125.81 534.513 1127.29 545.681 1128.42 556.966L1129.43 567.161L1066.7 573.427L1065.69 563.27C1063.12 537.626 1058.37 512.176 1051.64 487.66L1049.5 479.916L1044.29 463.144L1125.54 437.811C1121.8 426.565 1117.68 415.396 1113.24 404.539C1108.73 393.488 1103.9 382.631 1098.81 372.163L1079.08 382.242C1083.9 392.165 1088.45 402.438 1092.74 412.906L1096.63 422.401L1038.22 446.177L1034.36 436.721C1024.67 412.984 1012.92 389.908 999.458 368.194L995.411 361.695L985.41 346.752L1056.2 299.471C1049.42 289.743 1042.34 280.209 1035.03 271.064C1027.67 261.841 1019.97 252.774 1012.07 244.096L995.956 259.312C1003.43 267.562 1010.74 276.123 1017.71 284.878L1024.09 292.895L974.787 332.159L968.405 324.143C952.45 304.102 934.666 285.268 915.559 268.145L909.8 262.97L896.064 251.451L950.738 186.231C941.632 178.915 932.176 171.755 922.447 164.867C912.952 158.174 903.029 151.637 892.834 145.41L881.626 164.517C891.277 170.432 900.694 176.619 909.683 182.962L918.011 188.877L881.704 240.4L873.338 234.485C852.402 219.736 830.065 206.622 806.95 195.571L799.829 192.146L783.602 185.064L817.69 107.08C806.717 102.527 795.587 98.3242 784.536 94.5884C773.134 90.7359 761.732 87.2726 750.603 84.2762L745.271 105.796C755.817 108.636 766.596 111.905 777.414 115.563L787.104 118.832L766.83 178.526L757.14 175.257C732.741 167.008 707.641 160.781 682.503 156.773L674.564 155.528L657.092 153.349L667.677 68.9051C655.847 67.6599 644.017 66.7649 632.343 66.2979C620.591 65.8309 608.722 65.7142 596.931 65.9866L597.826 88.1287C608.994 87.8952 620.279 87.973 631.409 88.44L641.604 88.8681L638.997 151.87L628.762 151.442C603.235 150.352 577.357 151.442 551.751 154.633L544.436 155.528L526.418 158.408L512.993 74.3531C501.435 76.4156 489.8 78.9061 478.282 81.7468C467.113 84.5097 455.672 87.7396 444.154 91.3975L451.275 112.372C462.21 108.909 473.028 105.835 483.613 103.227L493.536 100.776L508.712 161.949L498.789 164.4C474.04 170.51 449.524 178.838 425.981 189.111L419.249 192.068L402.788 199.929L366.092 123.151C355.352 128.522 344.923 134.203 334.922 140.079C324.649 146.111 314.609 152.454 304.958 158.991L317.722 177.125C326.867 170.938 336.401 164.945 346.129 159.225L354.963 154.049L386.833 208.451L378 213.627C355.897 226.585 334.727 241.489 315.076 257.989L309.122 263.009L295.813 274.916L238.999 211.564C230.399 219.581 221.954 227.947 213.86 236.547C205.844 245.03 197.983 253.942 190.395 263.087L207.712 276.901C214.872 268.223 222.343 259.818 229.971 251.763L236.975 244.33L282.816 287.564L275.811 294.996C258.222 313.636 242.073 333.91 227.83 355.196L223.472 361.695L214.094 376.833L141.752 331.965C135.837 341.965 130.078 352.356 124.63 363.018C119.377 373.369 114.318 384.109 109.57 395.122L130.078 403.489C134.592 393.06 139.379 382.864 144.36 373.058L148.99 363.952L205.143 392.554L200.513 401.66C188.916 424.424 179.149 448.396 171.522 472.873L169.342 479.916L164.517 497.505L82.4472 474.935C79.5286 486.454 76.9604 498.05 74.8201 509.569C72.7187 520.932 70.9286 532.645 69.4887 544.591L91.5531 546.809C92.9151 535.485 94.6273 524.356 96.6119 513.616L98.4798 503.576L160.47 515.094L158.602 525.134C153.932 550.156 151.364 575.917 150.936 601.756L150.819 609.461L151.131 627.401L66.0254 628.801C66.4146 640.476 67.2317 652.306 68.3991 664.135L68.4771 664.174ZM609.5 1C945.018 1 1218 273.982 1218 609.5C1218 945.018 945.018 1218 609.5 1218C273.982 1218 0.999992 945.018 0.999992 609.5C0.999992 273.982 273.944 1 609.5 1ZM609.5 1194.18C931.865 1194.18 1194.15 931.903 1194.15 609.539C1194.15 287.174 931.865 24.8544 609.5 24.8544C287.135 24.8544 24.8544 287.135 24.8544 609.5C24.8544 931.865 287.135 1194.15 609.5 1194.15V1194.18Z"/>
</mask>
<path d="M609.5 171.444C851.04 171.444 1047.56 367.96 1047.56 609.5C1047.56 851.04 851.04 1047.56 609.5 1047.56C367.96 1047.56 171.444 851.04 171.444 609.5C171.444 367.96 367.96 171.444 609.5 171.444ZM609.5 1023.7C837.887 1023.7 1023.7 837.887 1023.7 609.5C1023.7 381.113 837.887 195.298 609.5 195.298C381.113 195.298 195.298 381.113 195.298 609.5C195.298 837.887 381.113 1023.7 609.5 1023.7ZM130.467 607.36L130.584 601.484C130.973 577.98 133.074 554.514 136.81 531.555L115.018 527.508C113.345 537.781 111.944 548.366 110.854 559.106L109.843 569.263L47.0743 562.998L48.086 552.802C49.7204 536.808 51.9385 521.009 54.7792 505.911C57.6199 490.501 61.2001 474.974 65.4028 459.681L68.1268 449.835L150.352 472.445L152.103 466.841C159.069 444.543 167.708 422.634 177.865 401.582L158.135 391.542C153.582 400.959 149.224 410.727 145.177 420.65L141.324 430.106L82.9142 406.329L86.7666 396.834C92.8372 382.008 99.4526 367.493 106.496 353.718C113.812 339.397 121.634 325.505 129.767 312.43L135.176 303.752L207.634 348.698L210.903 343.833C223.861 324.415 238.376 305.814 254.058 288.459L237.948 273.282C230.866 281.104 223.939 289.276 217.324 297.564L210.942 305.581L161.599 266.278L167.98 258.3C177.826 245.925 188.294 233.901 198.995 222.499C209.852 211.019 221.254 199.89 232.889 189.422L240.516 182.612L297.448 246.081L301.962 242.306C319.862 227.286 339.008 213.51 358.893 201.252L347.686 182.145C338.502 187.788 329.591 193.625 321.069 199.657L312.702 205.572L276.356 154.01L284.684 148.095C297.331 139.145 310.756 130.545 324.532 122.451C337.802 114.629 351.927 107.158 366.404 100.231L375.626 95.7948L412.4 172.728L417.77 170.393C439.212 161.015 461.432 153.232 483.924 147.123L478.593 125.642C468.553 128.327 458.358 131.44 448.084 134.942L438.395 138.211L418.12 78.5169L427.81 75.2481C443.142 70.0726 458.474 65.5585 473.301 61.9006C488.711 58.087 504.354 54.8961 519.764 52.4445L529.843 50.849L543.307 135.02L549.144 134.281C572.454 131.362 595.997 130.156 619.306 130.623L620.24 108.52C609.617 108.286 598.915 108.403 588.37 108.831L578.135 109.259L575.528 46.2571L585.723 45.8291C601.406 45.1675 617.361 45.1675 633.043 45.8291C648.609 46.4517 664.486 47.7748 680.246 49.7594L690.402 51.0436L679.779 135.682L685.577 136.616C708.536 140.274 731.457 145.683 753.871 152.765L760.993 131.79C750.641 128.522 740.368 125.603 730.328 123.151L720.405 120.7L735.582 59.4879L745.505 61.9395C760.37 65.5974 775.663 70.0726 791.034 75.287C805.822 80.307 820.687 86.0663 835.241 92.4093L844.619 96.4952L810.452 174.635L815.745 177.164C836.797 187.243 857.266 198.917 876.684 211.992L889.448 193.897C880.77 188.021 871.703 182.34 862.481 176.931L853.647 171.755L885.557 117.353L894.39 122.529C908.166 130.623 921.591 139.262 934.238 148.173C947.275 157.357 959.922 167.085 971.79 177.047L979.612 183.624L924.821 248.961L929.179 252.891C946.574 268.496 962.957 285.462 977.9 303.479L995.217 289.665C988.407 281.454 981.324 273.477 974.086 265.811L967.043 258.378L1012.92 215.105L1019.93 222.538C1030.67 233.901 1041.1 245.964 1050.94 258.3C1060.71 270.558 1070.09 283.4 1078.88 296.553L1084.56 305.036L1013.66 352.394L1016.78 357.375C1029.07 377.183 1040.01 398.08 1049.31 419.56L1069.82 411.194C1065.53 401.31 1061.02 391.62 1056.27 382.358L1051.6 373.252L1107.8 344.612L1112.43 353.718C1119.47 367.493 1126.08 382.008 1132.16 396.834C1138.07 411.349 1143.44 426.331 1148.15 441.469L1151.22 451.236L1069.78 476.608L1071.33 482.251C1077.48 504.626 1082.03 527.741 1084.87 551.09L1106.9 548.911C1105.62 538.17 1103.98 527.586 1102.07 517.429L1100.21 507.35L1162.24 495.832L1164.1 505.872C1166.94 520.97 1169.16 536.77 1170.8 552.802C1172.35 568.679 1173.29 584.556 1173.52 600.044L1173.68 610.278L1088.42 611.679L1088.34 617.555C1087.95 641.059 1085.85 664.525 1082.11 687.484L1103.86 691.531C1105.54 681.258 1106.94 670.673 1108.03 659.933L1109.04 649.776L1171.81 656.041L1170.76 666.237C1169.12 682.269 1166.91 698.069 1164.07 713.128C1161.22 728.499 1157.64 744.065 1153.44 759.358L1150.72 769.204L1068.49 746.594L1066.74 752.198C1059.78 774.496 1051.14 796.405 1040.98 817.457L1060.71 827.497C1065.26 818.08 1069.62 808.312 1073.67 798.389L1077.52 788.933L1135.93 812.71L1132.04 822.205C1125.97 837.031 1119.35 851.546 1112.31 865.321C1104.99 879.642 1097.17 893.534 1089.04 906.609L1083.63 915.287L1011.17 870.341L1007.9 875.206C994.944 894.624 980.429 913.225 964.747 930.58L980.857 945.757C987.94 937.935 994.866 929.763 1001.48 921.474L1007.86 913.458L1057.21 952.761L1050.82 960.778C1040.98 973.152 1030.51 985.216 1019.81 996.54C1008.95 1008.06 997.552 1019.15 985.916 1029.62L978.289 1036.43L921.358 972.958L916.844 976.733C898.943 991.753 879.797 1005.53 859.912 1017.79L871.12 1036.89C880.303 1031.25 889.215 1025.38 897.737 1019.38L906.103 1013.47L942.449 1065.03L934.122 1070.9C921.474 1079.85 908.088 1088.45 894.273 1096.55C881.004 1104.37 866.917 1111.84 852.402 1118.77L843.179 1123.21L806.405 1046.27L801.035 1048.61C779.555 1057.99 757.374 1065.77 734.881 1071.88L740.212 1093.36C750.213 1090.63 760.448 1087.56 770.721 1084.06L780.411 1080.79L800.685 1140.52L790.995 1143.79C775.663 1148.97 760.331 1153.48 745.505 1157.14C730.095 1160.95 714.451 1164.14 699.041 1166.59L688.963 1168.19L675.498 1083.98L669.661 1084.72C646.352 1087.64 622.809 1088.84 599.499 1088.38L598.604 1110.52C609.228 1110.75 619.929 1110.64 630.475 1110.21L640.709 1109.78L643.316 1172.78L633.082 1173.21C625.221 1173.52 617.322 1173.72 609.422 1173.72C601.523 1173.72 593.623 1173.56 585.762 1173.21C570.197 1172.59 554.32 1171.26 538.56 1169.28L528.403 1168L539.027 1083.36L533.228 1082.42C510.269 1078.77 487.349 1073.36 464.934 1066.27L457.813 1087.25C468.164 1090.52 478.437 1093.44 488.477 1095.89L498.439 1098.34L483.263 1159.55L473.339 1157.1C458.474 1153.44 443.181 1148.97 427.81 1143.75C413.023 1138.73 398.157 1132.97 383.604 1126.63L374.225 1122.54L408.392 1044.4L403.099 1041.87C382.047 1031.8 361.578 1020.12 342.16 1007.05L329.396 1025.14C338.074 1031.02 347.141 1036.7 356.364 1042.11L365.197 1047.28L333.327 1101.69L324.493 1096.51C310.717 1088.42 297.292 1079.78 284.645 1070.87C271.609 1061.68 258.962 1051.95 247.093 1041.99L239.271 1035.42L294.062 970.078L289.704 966.148C272.309 950.543 255.926 933.577 240.983 915.56L223.667 929.335C230.476 937.546 237.559 945.523 244.797 953.189L251.84 960.622L205.961 1003.89L198.956 996.462C188.216 985.099 177.787 973.036 167.942 960.7C158.174 948.442 148.757 935.6 140.001 922.447L134.32 913.925L205.221 866.567L202.147 861.586C189.85 841.778 178.915 820.881 169.615 799.401L149.107 807.767C153.388 817.652 157.902 827.341 162.649 836.603L167.28 845.709L111.088 874.349L106.457 865.244C99.4137 851.468 92.7984 836.953 86.7278 822.127C80.8128 807.612 75.4426 792.591 70.734 777.492L67.6987 767.725L149.146 742.353L147.589 736.71C141.441 714.335 136.888 691.22 134.047 667.871L112.022 670.089C113.306 680.869 114.94 691.414 116.847 701.571L118.715 711.65L56.6861 723.168L54.8182 713.128C51.9774 698.03 49.7593 682.231 48.1249 666.198C46.5684 650.321 45.6345 634.444 45.401 618.956L45.2453 608.722L130.506 607.321L130.467 607.36ZM68.4771 664.174C69.6834 676.082 71.2399 687.873 73.1467 699.314L94.9386 695.267C93.1486 684.449 91.6698 673.28 90.5413 661.995L89.5296 651.8L152.259 645.535L153.271 655.691C155.839 681.336 160.587 706.785 167.319 731.301L169.459 739.045L174.674 755.817L93.421 781.15C97.1568 792.396 101.282 803.565 105.718 814.422C110.232 825.473 115.057 836.33 120.155 846.798L139.923 836.72C135.098 826.796 130.545 816.523 126.265 806.055L122.373 796.56L180.783 772.784L184.636 782.24C194.325 805.977 206.077 829.053 219.542 850.768L223.589 857.266L233.551 872.209L162.766 919.49C169.537 929.218 176.619 938.752 183.935 947.897C191.29 957.12 198.995 966.187 206.895 974.865L223.005 959.649C215.533 951.399 208.218 942.838 201.252 934.044L194.87 926.027L244.174 886.763L250.556 894.779C266.511 914.82 284.295 933.655 303.402 950.816L309.161 955.991L322.898 967.51L268.223 1032.73C277.29 1040.05 286.785 1047.21 296.514 1054.09C306.009 1060.79 315.932 1067.32 326.127 1073.55L337.335 1054.44C327.645 1048.53 318.267 1042.34 309.278 1036L300.95 1030.08L337.257 978.562L345.623 984.476C366.559 999.225 388.896 1012.34 412.011 1023.39L419.132 1026.81L435.359 1033.9L401.271 1111.88C412.244 1116.43 423.374 1120.64 434.425 1124.37C445.827 1128.23 457.229 1131.69 468.397 1134.68L473.729 1113.17C463.183 1110.32 452.404 1107.06 441.625 1103.4L431.935 1100.13L452.209 1040.43L461.899 1043.7C486.298 1051.95 511.398 1058.18 536.536 1062.19L544.474 1063.43L561.947 1065.61L551.362 1150.06C563.192 1151.3 575.022 1152.2 586.696 1152.66C598.448 1153.13 610.317 1153.25 622.108 1152.97L621.174 1130.83C610.006 1131.07 598.76 1130.95 587.591 1130.52L577.357 1130.09L579.964 1067.09L590.199 1067.52C615.687 1068.61 641.604 1067.52 667.171 1064.33L674.525 1063.39L692.543 1060.51L705.968 1144.57C717.526 1142.51 729.122 1140.02 740.679 1137.18C751.848 1134.41 763.289 1131.18 774.807 1127.52L767.686 1106.55C756.751 1110.01 745.933 1113.09 735.348 1115.69L725.425 1118.15L710.249 1056.97L720.172 1054.52C744.921 1048.41 769.437 1040.08 792.98 1029.81L799.712 1026.85L816.173 1018.99L852.869 1095.77C863.609 1090.4 874.038 1084.72 884 1078.84C894.273 1072.81 904.313 1066.47 914.003 1059.93L901.239 1041.84C892.094 1048.02 882.56 1054.02 872.832 1059.74L863.998 1064.91L832.128 1010.51L840.961 1005.33C863.064 992.376 884.234 977.472 903.885 960.972L909.878 955.952L923.187 944.045L980.001 1007.4C988.601 999.381 997.046 991.014 1005.14 982.414C1013.2 973.892 1021.06 965.019 1028.61 955.875L1011.29 942.06C1004.13 950.738 996.657 959.143 989.029 967.237L982.025 974.67L936.145 931.398L943.189 923.965C960.778 905.325 976.927 885.051 991.131 863.765L995.489 857.227L1004.87 842.09L1077.17 886.958C1083.12 876.957 1088.84 866.567 1094.29 855.904C1099.58 845.553 1104.6 834.813 1109.35 823.8L1088.81 815.433C1084.33 825.862 1079.54 836.058 1074.52 845.825L1069.89 854.931L1013.74 826.329L1018.37 817.224C1029.97 794.459 1039.73 770.488 1047.36 746.011L1049.54 738.967L1054.37 721.378L1136.44 743.948C1139.35 732.43 1141.92 720.833 1144.06 709.315C1146.16 697.991 1147.95 686.239 1149.39 674.292L1127.33 672.074C1125.97 683.437 1124.26 694.566 1122.27 705.307L1120.4 715.346L1058.41 703.828L1060.28 693.788C1064.95 668.766 1067.52 643.005 1067.95 617.166L1068.06 609.461L1067.75 591.522L1152.86 590.121C1152.43 578.447 1151.65 566.617 1150.48 554.787C1149.28 542.84 1147.72 531.088 1145.81 519.647L1124.02 523.694C1125.81 534.513 1127.29 545.681 1128.42 556.966L1129.43 567.161L1066.7 573.427L1065.69 563.27C1063.12 537.626 1058.37 512.176 1051.64 487.66L1049.5 479.916L1044.29 463.144L1125.54 437.811C1121.8 426.565 1117.68 415.396 1113.24 404.539C1108.73 393.488 1103.9 382.631 1098.81 372.163L1079.08 382.242C1083.9 392.165 1088.45 402.438 1092.74 412.906L1096.63 422.401L1038.22 446.177L1034.36 436.721C1024.67 412.984 1012.92 389.908 999.458 368.194L995.411 361.695L985.41 346.752L1056.2 299.471C1049.42 289.743 1042.34 280.209 1035.03 271.064C1027.67 261.841 1019.97 252.774 1012.07 244.096L995.956 259.312C1003.43 267.562 1010.74 276.123 1017.71 284.878L1024.09 292.895L974.787 332.159L968.405 324.143C952.45 304.102 934.666 285.268 915.559 268.145L909.8 262.97L896.064 251.451L950.738 186.231C941.632 178.915 932.176 171.755 922.447 164.867C912.952 158.174 903.029 151.637 892.834 145.41L881.626 164.517C891.277 170.432 900.694 176.619 909.683 182.962L918.011 188.877L881.704 240.4L873.338 234.485C852.402 219.736 830.065 206.622 806.95 195.571L799.829 192.146L783.602 185.064L817.69 107.08C806.717 102.527 795.587 98.3242 784.536 94.5884C773.134 90.7359 761.732 87.2726 750.603 84.2762L745.271 105.796C755.817 108.636 766.596 111.905 777.414 115.563L787.104 118.832L766.83 178.526L757.14 175.257C732.741 167.008 707.641 160.781 682.503 156.773L674.564 155.528L657.092 153.349L667.677 68.9051C655.847 67.6599 644.017 66.7649 632.343 66.2979C620.591 65.8309 608.722 65.7142 596.931 65.9866L597.826 88.1287C608.994 87.8952 620.279 87.973 631.409 88.44L641.604 88.8681L638.997 151.87L628.762 151.442C603.235 150.352 577.357 151.442 551.751 154.633L544.436 155.528L526.418 158.408L512.993 74.3531C501.435 76.4156 489.8 78.9061 478.282 81.7468C467.113 84.5097 455.672 87.7396 444.154 91.3975L451.275 112.372C462.21 108.909 473.028 105.835 483.613 103.227L493.536 100.776L508.712 161.949L498.789 164.4C474.04 170.51 449.524 178.838 425.981 189.111L419.249 192.068L402.788 199.929L366.092 123.151C355.352 128.522 344.923 134.203 334.922 140.079C324.649 146.111 314.609 152.454 304.958 158.991L317.722 177.125C326.867 170.938 336.401 164.945 346.129 159.225L354.963 154.049L386.833 208.451L378 213.627C355.897 226.585 334.727 241.489 315.076 257.989L309.122 263.009L295.813 274.916L238.999 211.564C230.399 219.581 221.954 227.947 213.86 236.547C205.844 245.03 197.983 253.942 190.395 263.087L207.712 276.901C214.872 268.223 222.343 259.818 229.971 251.763L236.975 244.33L282.816 287.564L275.811 294.996C258.222 313.636 242.073 333.91 227.83 355.196L223.472 361.695L214.094 376.833L141.752 331.965C135.837 341.965 130.078 352.356 124.63 363.018C119.377 373.369 114.318 384.109 109.57 395.122L130.078 403.489C134.592 393.06 139.379 382.864 144.36 373.058L148.99 363.952L205.143 392.554L200.513 401.66C188.916 424.424 179.149 448.396 171.522 472.873L169.342 479.916L164.517 497.505L82.4472 474.935C79.5286 486.454 76.9604 498.05 74.8201 509.569C72.7187 520.932 70.9286 532.645 69.4887 544.591L91.5531 546.809C92.9151 535.485 94.6273 524.356 96.6119 513.616L98.4798 503.576L160.47 515.094L158.602 525.134C153.932 550.156 151.364 575.917 150.936 601.756L150.819 609.461L151.131 627.401L66.0254 628.801C66.4146 640.476 67.2317 652.306 68.3991 664.135L68.4771 664.174ZM609.5 1C945.018 1 1218 273.982 1218 609.5C1218 945.018 945.018 1218 609.5 1218C273.982 1218 0.999992 945.018 0.999992 609.5C0.999992 273.982 273.944 1 609.5 1ZM609.5 1194.18C931.865 1194.18 1194.15 931.903 1194.15 609.539C1194.15 287.174 931.865 24.8544 609.5 24.8544C287.135 24.8544 24.8544 287.135 24.8544 609.5C24.8544 931.865 287.135 1194.15 609.5 1194.15V1194.18Z" stroke="#A27F24" stroke-opacity="0.5" stroke-width="2" mask="url(#path-1-outside-1_188_2)"/>
</svg>
