<svg width="16" height="16" viewBox="0 0 17 16" fill="none" xmlns="http://www.w3.org/2000/svg">
<g clip-path="url(#clip0_72_162)">
<path d="M14.5 0C15.6046 0 16.5 0.89543 16.5 2V14C16.5 15.1046 15.6046 16 14.5 16H2.5C1.39543 16 0.5 15.1046 0.5 14V2C0.5 0.89543 1.39543 0 2.5 0H14.5ZM14.5 1H2.5C1.94772 1 1.5 1.44772 1.5 2V14C1.5 14.5523 1.94772 15 2.5 15H14.5C15.0523 15 15.5 14.5523 15.5 14V2C15.5 1.44772 15.0523 1 14.5 1ZM6 10.5C6.55229 10.5 7 10.9477 7 11.5C7 12.0523 6.55229 12.5 6 12.5C5.44772 12.5 5 12.0523 5 11.5C5 10.9477 5.44772 10.5 6 10.5ZM11 10.5C11.5523 10.5 12 10.9477 12 11.5C12 12.0523 11.5523 12.5 11 12.5C10.4477 12.5 10 12.0523 10 11.5C10 10.9477 10.4477 10.5 11 10.5ZM6 7C6.55229 7 7 7.44772 7 8C7 8.55229 6.55229 9 6 9C5.44772 9 5 8.55229 5 8C5 7.44772 5.44772 7 6 7ZM11 7C11.5523 7 12 7.44772 12 8C12 8.55229 11.5523 9 11 9C10.4477 9 10 8.55229 10 8C10 7.44772 10.4477 7 11 7ZM6 3.5C6.55229 3.5 7 3.94772 7 4.5C7 5.05228 6.55229 5.5 6 5.5C5.44772 5.5 5 5.05228 5 4.5C5 3.94772 5.44772 3.5 6 3.5ZM11 3.5C11.5523 3.5 12 3.94772 12 4.5C12 5.05228 11.5523 5.5 11 5.5C10.4477 5.5 10 5.05228 10 4.5C10 3.94772 10.4477 3.5 11 3.5Z" fill="white"/>
</g>
<defs>
<clipPath id="clip0_72_162">
<rect width="16" height="16" fill="white" transform="translate(0.5)"/>
</clipPath>
</defs>
</svg>
