<svg width="28" height="26" viewBox="0 0 18 16" fill="none" xmlns="http://www.w3.org/2000/svg">
<path d="M10.4998 2.91672C9.06314 3.51429 6.19775 4.74855 1.9075 6.61773C1.54422 6.76264 1.23584 6.91774 1.00472 7.08938C0.785036 7.25253 0.550014 7.49401 0.507759 7.83107C0.474266 8.09824 0.550645 8.33921 0.708109 8.53275C0.84965 8.70672 1.04003 8.8224 1.21202 8.90571C1.46952 9.03044 1.81349 9.13843 2.15214 9.24474C2.24974 9.27538 2.34689 9.30589 2.44141 9.33661C2.82438 9.4611 3.27697 9.59735 3.70428 9.7045C4.11998 9.80874 4.55164 9.89595 4.87536 9.90294C5.4969 9.91637 6.13192 9.6608 6.76525 9.22622C8.62768 7.96903 10.0706 7.00133 11.0946 6.32263C10.9821 6.42974 10.8677 6.53816 10.7528 6.64663C10.2661 7.10628 9.76295 7.57429 9.36986 7.93991C8.98847 8.29465 8.71071 8.55299 8.65217 8.61379C8.55551 8.71419 8.45593 8.81102 8.35389 8.90946C8.34234 8.92061 8.33071 8.93182 8.31904 8.94307C8.22984 9.02905 8.13765 9.11791 8.05188 9.20519C7.8656 9.39474 7.65777 9.62665 7.53946 9.89636C7.40615 10.2003 7.39076 10.543 7.57116 10.8885C7.73269 11.1978 8.03015 11.4677 8.4199 11.7245C9.01824 12.1188 9.49688 12.4447 9.97735 12.7719L10.0433 12.8169C10.5462 13.1593 11.0566 13.5062 11.7088 13.9337C11.8723 14.0409 12.0278 14.1517 12.188 14.2659C12.2209 14.2893 12.2539 14.3129 12.2873 14.3366C12.4786 14.4725 12.6797 14.6127 12.8865 14.7342C13.3032 14.979 13.7874 15.175 14.3627 15.1221C15.1147 15.0529 15.5998 14.3573 15.8152 13.2056C16.3029 10.5982 17.2665 4.92392 17.4906 2.56884C17.5155 2.30787 17.4856 2.0003 17.4611 1.85713C17.4361 1.71128 17.3686 1.39362 17.0736 1.15423C16.9059 1.01815 16.7145 0.950818 16.5688 0.916011C16.4199 0.880445 16.2792 0.869508 16.1789 0.871275C15.8119 0.877739 15.393 0.980948 14.5957 1.27026C13.7898 1.5627 12.5438 2.06658 10.4998 2.91672ZM12.8976 5.16233C12.8974 5.16254 12.8941 5.16425 12.8883 5.16685C12.8949 5.16342 12.8978 5.16212 12.8976 5.16233Z" stroke="white"/>
</svg>
